<svg version="1.1" id="Layer_1" xmlns="http://www.w3.org/2000/svg" x="0" y="0" viewBox="0 0 1024 1024" xml:space="preserve"><style>.st2{opacity:.2}.st3,.st4{fill:none;stroke:#231f20}.st4{stroke-width:2}.st5{opacity:.18}.st6,.st7{fill:none;stroke:#231f20;stroke-width:3}.st7{stroke-width:4}.st8{opacity:.16}.st10,.st9{fill:none;stroke:#231f20;stroke-width:5}.st10{stroke-width:6}.st11{opacity:.14}.st12,.st13{fill:none;stroke:#231f20;stroke-width:7}.st13{stroke-width:8}.st14{opacity:.12}.st15,.st16{fill:none;stroke:#231f20;stroke-width:9}.st16{stroke-width:10}.st17{opacity:.1}.st18,.st19{fill:none;stroke:#231f20;stroke-width:11}.st19{stroke-width:12}.st20{opacity:9.000000e-02}.st21,.st22{fill:none;stroke:#231f20;stroke-width:13}.st22{stroke-width:14}.st23{opacity:8.000000e-02}.st24,.st25{fill:none;stroke:#231f20;stroke-width:15}.st25{stroke-width:16}.st26{opacity:7.000000e-02}.st27,.st28{fill:none;stroke:#231f20;stroke-width:17}.st28{stroke-width:18}.st29{opacity:6.000000e-02}.st30,.st31{fill:none;stroke:#231f20;stroke-width:19}.st31{stroke-width:20}.st32{opacity:5.000000e-02}.st33,.st34{fill:none;stroke:#231f20;stroke-width:21}.st34{stroke-width:22}.st35{opacity:4.000000e-02}.st36,.st37{fill:none;stroke:#231f20;stroke-width:23}.st37{stroke-width:24}.st38{opacity:3.000000e-02}.st39,.st40{fill:none;stroke:#231f20;stroke-width:25}.st40{stroke-width:26}.st41{opacity:2.000000e-02}.st42,.st43{fill:none;stroke:#231f20;stroke-width:27}.st43{stroke-width:28}.st44{opacity:1.000000e-02}.st45,.st46{fill:none;stroke:#231f20;stroke-width:29}.st46{stroke-width:30}.st47,.st48{fill:none;stroke:#fff;stroke-width:32;stroke-miterlimit:10}.st48{stroke-linecap:round}</style><linearGradient id="Backround_1_" gradientUnits="userSpaceOnUse" x1="193.802" y1="830.198" x2="830.198" y2="193.802" gradientTransform="matrix(1 0 0 -1 0 1024)"><stop offset=".001" stop-color="#0671d9"/><stop offset="1" stop-color="#1b557c"/></linearGradient><circle id="Backround" cx="512" cy="512" r="450" fill="url(#Backround_1_)"/><g id="Shadow" opacity=".25"><path d="M253 619.9c-5.6 0-14.3-1.2-21.8-7.5-5.5-4.6-12.1-13.5-12.1-29.7V339.9c-.4-4.3-.8-15.5 6.6-24.3 3.7-4.3 10.5-9.5 22.1-9.5h458.6c1.4.1 8.8.5 16.6 3.8 13.1 5.4 20.7 16 20.7 29.1v146.5H715V338.9c0-.5 0-1.3-2.9-2.4-2.9-1.2-6-1.5-6.8-1.6H247.8c-.1.7-.1 1.5 0 1.7l.2 1.2v245c0 4.5.9 6.8 1.7 7.6.8.7 2.9.9 4 .8l1.4-.4 1 .1h185.4v28.8H256.9c-1 .1-2.3.2-3.9.2zm.4-28.8z"/><path d="M422.5 528c-3.7 0-7.5-1.4-10.3-4.3L279 388.4c-5.6-5.7-5.5-14.8.2-20.3 5.7-5.6 14.8-5.5 20.3.2l133.2 135.3c5.6 5.7 5.5 14.8-.2 20.3-2.7 2.8-6.4 4.1-10 4.1z"/><path d="M422.5 528h-94.2c-7.9 0-14.4-6.5-14.4-14.4s6.5-14.4 14.4-14.4h94.2c7.9 0 14.4 6.5 14.4 14.4s-6.4 14.4-14.4 14.4z"/><path d="M422.5 528c-7.9 0-14.4-6.5-14.4-14.4V413.3c0-7.9 6.5-14.4 14.4-14.4s14.4 6.5 14.4 14.4v100.4c0 7.8-6.4 14.3-14.4 14.3zM773.8 725.6H510.6c-24.4 0-44.2-19.8-44.2-44.2V565.9c0-24.4 19.8-44.2 44.2-44.2h263.2c24.4 0 44.2 19.8 44.2 44.2v115.5c0 24.3-19.8 44.2-44.2 44.2zM510.6 550.5c-8.5 0-15.4 6.9-15.4 15.4v115.5c0 8.5 6.9 15.4 15.4 15.4h263.2c8.5 0 15.4-6.9 15.4-15.4V565.9c0-8.5-6.9-15.4-15.4-15.4H510.6z"/><g class="st2"><path class="st3" d="M253 619.9c-5.6 0-14.3-1.2-21.8-7.5-5.5-4.6-12.1-13.5-12.1-29.7V339.9c-.4-4.3-.8-15.5 6.6-24.3 3.7-4.3 10.5-9.5 22.1-9.5h458.6c1.4.1 8.8.5 16.6 3.8 13.1 5.4 20.7 16 20.7 29.1v146.5H715V338.9c0-.5 0-1.3-2.9-2.4-2.9-1.2-6-1.5-6.8-1.6H247.8c-.1.7-.1 1.5 0 1.7l.2 1.2v245c0 4.5.9 6.8 1.7 7.6.8.7 2.9.9 4 .8l1.4-.4 1 .1h185.4v28.8H256.9c-1 .1-2.3.2-3.9.2zm.4-28.8z"/><path class="st3" d="M422.5 528c-3.7 0-7.5-1.4-10.3-4.3L279 388.4c-5.6-5.7-5.5-14.8.2-20.3 5.7-5.6 14.8-5.5 20.3.2l133.2 135.3c5.6 5.7 5.5 14.8-.2 20.3-2.7 2.8-6.4 4.1-10 4.1z"/><path class="st3" d="M422.5 528h-94.2c-7.9 0-14.4-6.5-14.4-14.4s6.5-14.4 14.4-14.4h94.2c7.9 0 14.4 6.5 14.4 14.4s-6.4 14.4-14.4 14.4z"/><path class="st3" d="M422.5 528c-7.9 0-14.4-6.5-14.4-14.4V413.3c0-7.9 6.5-14.4 14.4-14.4s14.4 6.5 14.4 14.4v100.4c0 7.8-6.4 14.3-14.4 14.3zM773.8 725.6H510.6c-24.4 0-44.2-19.8-44.2-44.2V565.9c0-24.4 19.8-44.2 44.2-44.2h263.2c24.4 0 44.2 19.8 44.2 44.2v115.5c0 24.3-19.8 44.2-44.2 44.2zM510.6 550.5c-8.5 0-15.4 6.9-15.4 15.4v115.5c0 8.5 6.9 15.4 15.4 15.4h263.2c8.5 0 15.4-6.9 15.4-15.4V565.9c0-8.5-6.9-15.4-15.4-15.4H510.6z"/></g><g class="st2"><path class="st4" d="M253 619.9c-5.6 0-14.3-1.2-21.8-7.5-5.5-4.6-12.1-13.5-12.1-29.7V339.9c-.4-4.3-.8-15.5 6.6-24.3 3.7-4.3 10.5-9.5 22.1-9.5h458.6c1.4.1 8.8.5 16.6 3.8 13.1 5.4 20.7 16 20.7 29.1v146.5H715V338.9c0-.5 0-1.3-2.9-2.4-2.9-1.2-6-1.5-6.8-1.6H247.8c-.1.7-.1 1.5 0 1.7l.2 1.2v245c0 4.5.9 6.8 1.7 7.6.8.7 2.9.9 4 .8l1.4-.4 1 .1h185.4v28.8H256.9c-1 .1-2.3.2-3.9.2zm.4-28.8z"/><path class="st4" d="M422.5 528c-3.7 0-7.5-1.4-10.3-4.3L279 388.4c-5.6-5.7-5.5-14.8.2-20.3 5.7-5.6 14.8-5.5 20.3.2l133.2 135.3c5.6 5.7 5.5 14.8-.2 20.3-2.7 2.8-6.4 4.1-10 4.1z"/><path class="st4" d="M422.5 528h-94.2c-7.9 0-14.4-6.5-14.4-14.4s6.5-14.4 14.4-14.4h94.2c7.9 0 14.4 6.5 14.4 14.4s-6.4 14.4-14.4 14.4z"/><path class="st4" d="M422.5 528c-7.9 0-14.4-6.5-14.4-14.4V413.3c0-7.9 6.5-14.4 14.4-14.4s14.4 6.5 14.4 14.4v100.4c0 7.8-6.4 14.3-14.4 14.3zM773.8 725.6H510.6c-24.4 0-44.2-19.8-44.2-44.2V565.9c0-24.4 19.8-44.2 44.2-44.2h263.2c24.4 0 44.2 19.8 44.2 44.2v115.5c0 24.3-19.8 44.2-44.2 44.2zM510.6 550.5c-8.5 0-15.4 6.9-15.4 15.4v115.5c0 8.5 6.9 15.4 15.4 15.4h263.2c8.5 0 15.4-6.9 15.4-15.4V565.9c0-8.5-6.9-15.4-15.4-15.4H510.6z"/></g><g class="st5"><path class="st6" d="M253 619.9c-5.6 0-14.3-1.2-21.8-7.5-5.5-4.6-12.1-13.5-12.1-29.7V339.9c-.4-4.3-.8-15.5 6.6-24.3 3.7-4.3 10.5-9.5 22.1-9.5h458.6c1.4.1 8.8.5 16.6 3.8 13.1 5.4 20.7 16 20.7 29.1v146.5H715V338.9c0-.5 0-1.3-2.9-2.4-2.9-1.2-6-1.5-6.8-1.6H247.8c-.1.7-.1 1.5 0 1.7l.2 1.2v245c0 4.5.9 6.8 1.7 7.6.8.7 2.9.9 4 .8l1.4-.4 1 .1h185.4v28.8H256.9c-1 .1-2.3.2-3.9.2zm.4-28.8z"/><path class="st6" d="M422.5 528c-3.7 0-7.5-1.4-10.3-4.3L279 388.4c-5.6-5.7-5.5-14.8.2-20.3 5.7-5.6 14.8-5.5 20.3.2l133.2 135.3c5.6 5.7 5.5 14.8-.2 20.3-2.7 2.8-6.4 4.1-10 4.1z"/><path class="st6" d="M422.5 528h-94.2c-7.9 0-14.4-6.5-14.4-14.4s6.5-14.4 14.4-14.4h94.2c7.9 0 14.4 6.5 14.4 14.4s-6.4 14.4-14.4 14.4z"/><path class="st6" d="M422.5 528c-7.9 0-14.4-6.5-14.4-14.4V413.3c0-7.9 6.5-14.4 14.4-14.4s14.4 6.5 14.4 14.4v100.4c0 7.8-6.4 14.3-14.4 14.3zM773.8 725.6H510.6c-24.4 0-44.2-19.8-44.2-44.2V565.9c0-24.4 19.8-44.2 44.2-44.2h263.2c24.4 0 44.2 19.8 44.2 44.2v115.5c0 24.3-19.8 44.2-44.2 44.2zM510.6 550.5c-8.5 0-15.4 6.9-15.4 15.4v115.5c0 8.5 6.9 15.4 15.4 15.4h263.2c8.5 0 15.4-6.9 15.4-15.4V565.9c0-8.5-6.9-15.4-15.4-15.4H510.6z"/></g><g class="st5"><path class="st7" d="M253 619.9c-5.6 0-14.3-1.2-21.8-7.5-5.5-4.6-12.1-13.5-12.1-29.7V339.9c-.4-4.3-.8-15.5 6.6-24.3 3.7-4.3 10.5-9.5 22.1-9.5h458.6c1.4.1 8.8.5 16.6 3.8 13.1 5.4 20.7 16 20.7 29.1v146.5H715V338.9c0-.5 0-1.3-2.9-2.4-2.9-1.2-6-1.5-6.8-1.6H247.8c-.1.7-.1 1.5 0 1.7l.2 1.2v245c0 4.5.9 6.8 1.7 7.6.8.7 2.9.9 4 .8l1.4-.4 1 .1h185.4v28.8H256.9c-1 .1-2.3.2-3.9.2zm.4-28.8z"/><path class="st7" d="M422.5 528c-3.7 0-7.5-1.4-10.3-4.3L279 388.4c-5.6-5.7-5.5-14.8.2-20.3 5.7-5.6 14.8-5.5 20.3.2l133.2 135.3c5.6 5.7 5.5 14.8-.2 20.3-2.7 2.8-6.4 4.1-10 4.1z"/><path class="st7" d="M422.5 528h-94.2c-7.9 0-14.4-6.5-14.4-14.4s6.5-14.4 14.4-14.4h94.2c7.9 0 14.4 6.5 14.4 14.4s-6.4 14.4-14.4 14.4z"/><path class="st7" d="M422.5 528c-7.9 0-14.4-6.5-14.4-14.4V413.3c0-7.9 6.5-14.4 14.4-14.4s14.4 6.5 14.4 14.4v100.4c0 7.8-6.4 14.3-14.4 14.3zM773.8 725.6H510.6c-24.4 0-44.2-19.8-44.2-44.2V565.9c0-24.4 19.8-44.2 44.2-44.2h263.2c24.4 0 44.2 19.8 44.2 44.2v115.5c0 24.3-19.8 44.2-44.2 44.2zM510.6 550.5c-8.5 0-15.4 6.9-15.4 15.4v115.5c0 8.5 6.9 15.4 15.4 15.4h263.2c8.5 0 15.4-6.9 15.4-15.4V565.9c0-8.5-6.9-15.4-15.4-15.4H510.6z"/></g><g class="st8"><path class="st9" d="M253 619.9c-5.6 0-14.3-1.2-21.8-7.5-5.5-4.6-12.1-13.5-12.1-29.7V339.9c-.4-4.3-.8-15.5 6.6-24.3 3.7-4.3 10.5-9.5 22.1-9.5h458.6c1.4.1 8.8.5 16.6 3.8 13.1 5.4 20.7 16 20.7 29.1v146.5H715V338.9c0-.5 0-1.3-2.9-2.4-2.9-1.2-6-1.5-6.8-1.6H247.8c-.1.7-.1 1.5 0 1.7l.2 1.2v245c0 4.5.9 6.8 1.7 7.6.8.7 2.9.9 4 .8l1.4-.4 1 .1h185.4v28.8H256.9c-1 .1-2.3.2-3.9.2zm.4-28.8z"/><path class="st9" d="M422.5 528c-3.7 0-7.5-1.4-10.3-4.3L279 388.4c-5.6-5.7-5.5-14.8.2-20.3 5.7-5.6 14.8-5.5 20.3.2l133.2 135.3c5.6 5.7 5.5 14.8-.2 20.3-2.7 2.8-6.4 4.1-10 4.1z"/><path class="st9" d="M422.5 528h-94.2c-7.9 0-14.4-6.5-14.4-14.4s6.5-14.4 14.4-14.4h94.2c7.9 0 14.4 6.5 14.4 14.4s-6.4 14.4-14.4 14.4z"/><path class="st9" d="M422.5 528c-7.9 0-14.4-6.5-14.4-14.4V413.3c0-7.9 6.5-14.4 14.4-14.4s14.4 6.5 14.4 14.4v100.4c0 7.8-6.4 14.3-14.4 14.3zM773.8 725.6H510.6c-24.4 0-44.2-19.8-44.2-44.2V565.9c0-24.4 19.8-44.2 44.2-44.2h263.2c24.4 0 44.2 19.8 44.2 44.2v115.5c0 24.3-19.8 44.2-44.2 44.2zM510.6 550.5c-8.5 0-15.4 6.9-15.4 15.4v115.5c0 8.5 6.9 15.4 15.4 15.4h263.2c8.5 0 15.4-6.9 15.4-15.4V565.9c0-8.5-6.9-15.4-15.4-15.4H510.6z"/></g><g class="st8"><path class="st10" d="M253 619.9c-5.6 0-14.3-1.2-21.8-7.5-5.5-4.6-12.1-13.5-12.1-29.7V339.9c-.4-4.3-.8-15.5 6.6-24.3 3.7-4.3 10.5-9.5 22.1-9.5h458.6c1.4.1 8.8.5 16.6 3.8 13.1 5.4 20.7 16 20.7 29.1v146.5H715V338.9c0-.5 0-1.3-2.9-2.4-2.9-1.2-6-1.5-6.8-1.6H247.8c-.1.7-.1 1.5 0 1.7l.2 1.2v245c0 4.5.9 6.8 1.7 7.6.8.7 2.9.9 4 .8l1.4-.4 1 .1h185.4v28.8H256.9c-1 .1-2.3.2-3.9.2zm.4-28.8z"/><path class="st10" d="M422.5 528c-3.7 0-7.5-1.4-10.3-4.3L279 388.4c-5.6-5.7-5.5-14.8.2-20.3 5.7-5.6 14.8-5.5 20.3.2l133.2 135.3c5.6 5.7 5.5 14.8-.2 20.3-2.7 2.8-6.4 4.1-10 4.1z"/><path class="st10" d="M422.5 528h-94.2c-7.9 0-14.4-6.5-14.4-14.4s6.5-14.4 14.4-14.4h94.2c7.9 0 14.4 6.5 14.4 14.4s-6.4 14.4-14.4 14.4z"/><path class="st10" d="M422.5 528c-7.9 0-14.4-6.5-14.4-14.4V413.3c0-7.9 6.5-14.4 14.4-14.4s14.4 6.5 14.4 14.4v100.4c0 7.8-6.4 14.3-14.4 14.3zM773.8 725.6H510.6c-24.4 0-44.2-19.8-44.2-44.2V565.9c0-24.4 19.8-44.2 44.2-44.2h263.2c24.4 0 44.2 19.8 44.2 44.2v115.5c0 24.3-19.8 44.2-44.2 44.2zM510.6 550.5c-8.5 0-15.4 6.9-15.4 15.4v115.5c0 8.5 6.9 15.4 15.4 15.4h263.2c8.5 0 15.4-6.9 15.4-15.4V565.9c0-8.5-6.9-15.4-15.4-15.4H510.6z"/></g><g class="st11"><path class="st12" d="M253 619.9c-5.6 0-14.3-1.2-21.8-7.5-5.5-4.6-12.1-13.5-12.1-29.7V339.9c-.4-4.3-.8-15.5 6.6-24.3 3.7-4.3 10.5-9.5 22.1-9.5h458.6c1.4.1 8.8.5 16.6 3.8 13.1 5.4 20.7 16 20.7 29.1v146.5H715V338.9c0-.5 0-1.3-2.9-2.4-2.9-1.2-6-1.5-6.8-1.6H247.8c-.1.7-.1 1.5 0 1.7l.2 1.2v245c0 4.5.9 6.8 1.7 7.6.8.7 2.9.9 4 .8l1.4-.4 1 .1h185.4v28.8H256.9c-1 .1-2.3.2-3.9.2zm.4-28.8z"/><path class="st12" d="M422.5 528c-3.7 0-7.5-1.4-10.3-4.3L279 388.4c-5.6-5.7-5.5-14.8.2-20.3 5.7-5.6 14.8-5.5 20.3.2l133.2 135.3c5.6 5.7 5.5 14.8-.2 20.3-2.7 2.8-6.4 4.1-10 4.1z"/><path class="st12" d="M422.5 528h-94.2c-7.9 0-14.4-6.5-14.4-14.4s6.5-14.4 14.4-14.4h94.2c7.9 0 14.4 6.5 14.4 14.4s-6.4 14.4-14.4 14.4z"/><path class="st12" d="M422.5 528c-7.9 0-14.4-6.5-14.4-14.4V413.3c0-7.9 6.5-14.4 14.4-14.4s14.4 6.5 14.4 14.4v100.4c0 7.8-6.4 14.3-14.4 14.3zM773.8 725.6H510.6c-24.4 0-44.2-19.8-44.2-44.2V565.9c0-24.4 19.8-44.2 44.2-44.2h263.2c24.4 0 44.2 19.8 44.2 44.2v115.5c0 24.3-19.8 44.2-44.2 44.2zM510.6 550.5c-8.5 0-15.4 6.9-15.4 15.4v115.5c0 8.5 6.9 15.4 15.4 15.4h263.2c8.5 0 15.4-6.9 15.4-15.4V565.9c0-8.5-6.9-15.4-15.4-15.4H510.6z"/></g><g class="st11"><path class="st13" d="M253 619.9c-5.6 0-14.3-1.2-21.8-7.5-5.5-4.6-12.1-13.5-12.1-29.7V339.9c-.4-4.3-.8-15.5 6.6-24.3 3.7-4.3 10.5-9.5 22.1-9.5h458.6c1.4.1 8.8.5 16.6 3.8 13.1 5.4 20.7 16 20.7 29.1v146.5H715V338.9c0-.5 0-1.3-2.9-2.4-2.9-1.2-6-1.5-6.8-1.6H247.8c-.1.7-.1 1.5 0 1.7l.2 1.2v245c0 4.5.9 6.8 1.7 7.6.8.7 2.9.9 4 .8l1.4-.4 1 .1h185.4v28.8H256.9c-1 .1-2.3.2-3.9.2zm.4-28.8z"/><path class="st13" d="M422.5 528c-3.7 0-7.5-1.4-10.3-4.3L279 388.4c-5.6-5.7-5.5-14.8.2-20.3 5.7-5.6 14.8-5.5 20.3.2l133.2 135.3c5.6 5.7 5.5 14.8-.2 20.3-2.7 2.8-6.4 4.1-10 4.1z"/><path class="st13" d="M422.5 528h-94.2c-7.9 0-14.4-6.5-14.4-14.4s6.5-14.4 14.4-14.4h94.2c7.9 0 14.4 6.5 14.4 14.4s-6.4 14.4-14.4 14.4z"/><path class="st13" d="M422.5 528c-7.9 0-14.4-6.5-14.4-14.4V413.3c0-7.9 6.5-14.4 14.4-14.4s14.4 6.5 14.4 14.4v100.4c0 7.8-6.4 14.3-14.4 14.3zM773.8 725.6H510.6c-24.4 0-44.2-19.8-44.2-44.2V565.9c0-24.4 19.8-44.2 44.2-44.2h263.2c24.4 0 44.2 19.8 44.2 44.2v115.5c0 24.3-19.8 44.2-44.2 44.2zM510.6 550.5c-8.5 0-15.4 6.9-15.4 15.4v115.5c0 8.5 6.9 15.4 15.4 15.4h263.2c8.5 0 15.4-6.9 15.4-15.4V565.9c0-8.5-6.9-15.4-15.4-15.4H510.6z"/></g><g class="st14"><path class="st15" d="M253 619.9c-5.6 0-14.3-1.2-21.8-7.5-5.5-4.6-12.1-13.5-12.1-29.7V339.9c-.4-4.3-.8-15.5 6.6-24.3 3.7-4.3 10.5-9.5 22.1-9.5h458.6c1.4.1 8.8.5 16.6 3.8 13.1 5.4 20.7 16 20.7 29.1v146.5H715V338.9c0-.5 0-1.3-2.9-2.4-2.9-1.2-6-1.5-6.8-1.6H247.8c-.1.7-.1 1.5 0 1.7l.2 1.2v245c0 4.5.9 6.8 1.7 7.6.8.7 2.9.9 4 .8l1.4-.4 1 .1h185.4v28.8H256.9c-1 .1-2.3.2-3.9.2zm.4-28.8z"/><path class="st15" d="M422.5 528c-3.7 0-7.5-1.4-10.3-4.3L279 388.4c-5.6-5.7-5.5-14.8.2-20.3 5.7-5.6 14.8-5.5 20.3.2l133.2 135.3c5.6 5.7 5.5 14.8-.2 20.3-2.7 2.8-6.4 4.1-10 4.1z"/><path class="st15" d="M422.5 528h-94.2c-7.9 0-14.4-6.5-14.4-14.4s6.5-14.4 14.4-14.4h94.2c7.9 0 14.4 6.5 14.4 14.4s-6.4 14.4-14.4 14.4z"/><path class="st15" d="M422.5 528c-7.9 0-14.4-6.5-14.4-14.4V413.3c0-7.9 6.5-14.4 14.4-14.4s14.4 6.5 14.4 14.4v100.4c0 7.8-6.4 14.3-14.4 14.3zM773.8 725.6H510.6c-24.4 0-44.2-19.8-44.2-44.2V565.9c0-24.4 19.8-44.2 44.2-44.2h263.2c24.4 0 44.2 19.8 44.2 44.2v115.5c0 24.3-19.8 44.2-44.2 44.2zM510.6 550.5c-8.5 0-15.4 6.9-15.4 15.4v115.5c0 8.5 6.9 15.4 15.4 15.4h263.2c8.5 0 15.4-6.9 15.4-15.4V565.9c0-8.5-6.9-15.4-15.4-15.4H510.6z"/></g><g class="st14"><path class="st16" d="M253 619.9c-5.6 0-14.3-1.2-21.8-7.5-5.5-4.6-12.1-13.5-12.1-29.7V339.9c-.4-4.3-.8-15.5 6.6-24.3 3.7-4.3 10.5-9.5 22.1-9.5h458.6c1.4.1 8.8.5 16.6 3.8 13.1 5.4 20.7 16 20.7 29.1v146.5H715V338.9c0-.5 0-1.3-2.9-2.4-2.9-1.2-6-1.5-6.8-1.6H247.8c-.1.7-.1 1.5 0 1.7l.2 1.2v245c0 4.5.9 6.8 1.7 7.6.8.7 2.9.9 4 .8l1.4-.4 1 .1h185.4v28.8H256.9c-1 .1-2.3.2-3.9.2zm.4-28.8z"/><path class="st16" d="M422.5 528c-3.7 0-7.5-1.4-10.3-4.3L279 388.4c-5.6-5.7-5.5-14.8.2-20.3 5.7-5.6 14.8-5.5 20.3.2l133.2 135.3c5.6 5.7 5.5 14.8-.2 20.3-2.7 2.8-6.4 4.1-10 4.1z"/><path class="st16" d="M422.5 528h-94.2c-7.9 0-14.4-6.5-14.4-14.4s6.5-14.4 14.4-14.4h94.2c7.9 0 14.4 6.5 14.4 14.4s-6.4 14.4-14.4 14.4z"/><path class="st16" d="M422.5 528c-7.9 0-14.4-6.5-14.4-14.4V413.3c0-7.9 6.5-14.4 14.4-14.4s14.4 6.5 14.4 14.4v100.4c0 7.8-6.4 14.3-14.4 14.3zM773.8 725.6H510.6c-24.4 0-44.2-19.8-44.2-44.2V565.9c0-24.4 19.8-44.2 44.2-44.2h263.2c24.4 0 44.2 19.8 44.2 44.2v115.5c0 24.3-19.8 44.2-44.2 44.2zM510.6 550.5c-8.5 0-15.4 6.9-15.4 15.4v115.5c0 8.5 6.9 15.4 15.4 15.4h263.2c8.5 0 15.4-6.9 15.4-15.4V565.9c0-8.5-6.9-15.4-15.4-15.4H510.6z"/></g><g class="st17"><path class="st18" d="M253 619.9c-5.6 0-14.3-1.2-21.8-7.5-5.5-4.6-12.1-13.5-12.1-29.7V339.9c-.4-4.3-.8-15.5 6.6-24.3 3.7-4.3 10.5-9.5 22.1-9.5h458.6c1.4.1 8.8.5 16.6 3.8 13.1 5.4 20.7 16 20.7 29.1v146.5H715V338.9c0-.5 0-1.3-2.9-2.4-2.9-1.2-6-1.5-6.8-1.6H247.8c-.1.7-.1 1.5 0 1.7l.2 1.2v245c0 4.5.9 6.8 1.7 7.6.8.7 2.9.9 4 .8l1.4-.4 1 .1h185.4v28.8H256.9c-1 .1-2.3.2-3.9.2zm.4-28.8z"/><path class="st18" d="M422.5 528c-3.7 0-7.5-1.4-10.3-4.3L279 388.4c-5.6-5.7-5.5-14.8.2-20.3 5.7-5.6 14.8-5.5 20.3.2l133.2 135.3c5.6 5.7 5.5 14.8-.2 20.3-2.7 2.8-6.4 4.1-10 4.1z"/><path class="st18" d="M422.5 528h-94.2c-7.9 0-14.4-6.5-14.4-14.4s6.5-14.4 14.4-14.4h94.2c7.9 0 14.4 6.5 14.4 14.4s-6.4 14.4-14.4 14.4z"/><path class="st18" d="M422.5 528c-7.9 0-14.4-6.5-14.4-14.4V413.3c0-7.9 6.5-14.4 14.4-14.4s14.4 6.5 14.4 14.4v100.4c0 7.8-6.4 14.3-14.4 14.3zM773.8 725.6H510.6c-24.4 0-44.2-19.8-44.2-44.2V565.9c0-24.4 19.8-44.2 44.2-44.2h263.2c24.4 0 44.2 19.8 44.2 44.2v115.5c0 24.3-19.8 44.2-44.2 44.2zM510.6 550.5c-8.5 0-15.4 6.9-15.4 15.4v115.5c0 8.5 6.9 15.4 15.4 15.4h263.2c8.5 0 15.4-6.9 15.4-15.4V565.9c0-8.5-6.9-15.4-15.4-15.4H510.6z"/></g><g class="st17"><path class="st19" d="M253 619.9c-5.6 0-14.3-1.2-21.8-7.5-5.5-4.6-12.1-13.5-12.1-29.7V339.9c-.4-4.3-.8-15.5 6.6-24.3 3.7-4.3 10.5-9.5 22.1-9.5h458.6c1.4.1 8.8.5 16.6 3.8 13.1 5.4 20.7 16 20.7 29.1v146.5H715V338.9c0-.5 0-1.3-2.9-2.4-2.9-1.2-6-1.5-6.8-1.6H247.8c-.1.7-.1 1.5 0 1.7l.2 1.2v245c0 4.5.9 6.8 1.7 7.6.8.7 2.9.9 4 .8l1.4-.4 1 .1h185.4v28.8H256.9c-1 .1-2.3.2-3.9.2zm.4-28.8z"/><path class="st19" d="M422.5 528c-3.7 0-7.5-1.4-10.3-4.3L279 388.4c-5.6-5.7-5.5-14.8.2-20.3 5.7-5.6 14.8-5.5 20.3.2l133.2 135.3c5.6 5.7 5.5 14.8-.2 20.3-2.7 2.8-6.4 4.1-10 4.1z"/><path class="st19" d="M422.5 528h-94.2c-7.9 0-14.4-6.5-14.4-14.4s6.5-14.4 14.4-14.4h94.2c7.9 0 14.4 6.5 14.4 14.4s-6.4 14.4-14.4 14.4z"/><path class="st19" d="M422.5 528c-7.9 0-14.4-6.5-14.4-14.4V413.3c0-7.9 6.5-14.4 14.4-14.4s14.4 6.5 14.4 14.4v100.4c0 7.8-6.4 14.3-14.4 14.3zM773.8 725.6H510.6c-24.4 0-44.2-19.8-44.2-44.2V565.9c0-24.4 19.8-44.2 44.2-44.2h263.2c24.4 0 44.2 19.8 44.2 44.2v115.5c0 24.3-19.8 44.2-44.2 44.2zM510.6 550.5c-8.5 0-15.4 6.9-15.4 15.4v115.5c0 8.5 6.9 15.4 15.4 15.4h263.2c8.5 0 15.4-6.9 15.4-15.4V565.9c0-8.5-6.9-15.4-15.4-15.4H510.6z"/></g><g class="st20"><path class="st21" d="M253 619.9c-5.6 0-14.3-1.2-21.8-7.5-5.5-4.6-12.1-13.5-12.1-29.7V339.9c-.4-4.3-.8-15.5 6.6-24.3 3.7-4.3 10.5-9.5 22.1-9.5h458.6c1.4.1 8.8.5 16.6 3.8 13.1 5.4 20.7 16 20.7 29.1v146.5H715V338.9c0-.5 0-1.3-2.9-2.4-2.9-1.2-6-1.5-6.8-1.6H247.8c-.1.7-.1 1.5 0 1.7l.2 1.2v245c0 4.5.9 6.8 1.7 7.6.8.7 2.9.9 4 .8l1.4-.4 1 .1h185.4v28.8H256.9c-1 .1-2.3.2-3.9.2zm.4-28.8z"/><path class="st21" d="M422.5 528c-3.7 0-7.5-1.4-10.3-4.3L279 388.4c-5.6-5.7-5.5-14.8.2-20.3 5.7-5.6 14.8-5.5 20.3.2l133.2 135.3c5.6 5.7 5.5 14.8-.2 20.3-2.7 2.8-6.4 4.1-10 4.1z"/><path class="st21" d="M422.5 528h-94.2c-7.9 0-14.4-6.5-14.4-14.4s6.5-14.4 14.4-14.4h94.2c7.9 0 14.4 6.5 14.4 14.4s-6.4 14.4-14.4 14.4z"/><path class="st21" d="M422.5 528c-7.9 0-14.4-6.5-14.4-14.4V413.3c0-7.9 6.5-14.4 14.4-14.4s14.4 6.5 14.4 14.4v100.4c0 7.8-6.4 14.3-14.4 14.3zM773.8 725.6H510.6c-24.4 0-44.2-19.8-44.2-44.2V565.9c0-24.4 19.8-44.2 44.2-44.2h263.2c24.4 0 44.2 19.8 44.2 44.2v115.5c0 24.3-19.8 44.2-44.2 44.2zM510.6 550.5c-8.5 0-15.4 6.9-15.4 15.4v115.5c0 8.5 6.9 15.4 15.4 15.4h263.2c8.5 0 15.4-6.9 15.4-15.4V565.9c0-8.5-6.9-15.4-15.4-15.4H510.6z"/></g><g class="st20"><path class="st22" d="M253 619.9c-5.6 0-14.3-1.2-21.8-7.5-5.5-4.6-12.1-13.5-12.1-29.7V339.9c-.4-4.3-.8-15.5 6.6-24.3 3.7-4.3 10.5-9.5 22.1-9.5h458.6c1.4.1 8.8.5 16.6 3.8 13.1 5.4 20.7 16 20.7 29.1v146.5H715V338.9c0-.5 0-1.3-2.9-2.4-2.9-1.2-6-1.5-6.8-1.6H247.8c-.1.7-.1 1.5 0 1.7l.2 1.2v245c0 4.5.9 6.8 1.7 7.6.8.7 2.9.9 4 .8l1.4-.4 1 .1h185.4v28.8H256.9c-1 .1-2.3.2-3.9.2zm.4-28.8z"/><path class="st22" d="M422.5 528c-3.7 0-7.5-1.4-10.3-4.3L279 388.4c-5.6-5.7-5.5-14.8.2-20.3 5.7-5.6 14.8-5.5 20.3.2l133.2 135.3c5.6 5.7 5.5 14.8-.2 20.3-2.7 2.8-6.4 4.1-10 4.1z"/><path class="st22" d="M422.5 528h-94.2c-7.9 0-14.4-6.5-14.4-14.4s6.5-14.4 14.4-14.4h94.2c7.9 0 14.4 6.5 14.4 14.4s-6.4 14.4-14.4 14.4z"/><path class="st22" d="M422.5 528c-7.9 0-14.4-6.5-14.4-14.4V413.3c0-7.9 6.5-14.4 14.4-14.4s14.4 6.5 14.4 14.4v100.4c0 7.8-6.4 14.3-14.4 14.3zM773.8 725.6H510.6c-24.4 0-44.2-19.8-44.2-44.2V565.9c0-24.4 19.8-44.2 44.2-44.2h263.2c24.4 0 44.2 19.8 44.2 44.2v115.5c0 24.3-19.8 44.2-44.2 44.2zM510.6 550.5c-8.5 0-15.4 6.9-15.4 15.4v115.5c0 8.5 6.9 15.4 15.4 15.4h263.2c8.5 0 15.4-6.9 15.4-15.4V565.9c0-8.5-6.9-15.4-15.4-15.4H510.6z"/></g><g class="st23"><path class="st24" d="M253 619.9c-5.6 0-14.3-1.2-21.8-7.5-5.5-4.6-12.1-13.5-12.1-29.7V339.9c-.4-4.3-.8-15.5 6.6-24.3 3.7-4.3 10.5-9.5 22.1-9.5h458.6c1.4.1 8.8.5 16.6 3.8 13.1 5.4 20.7 16 20.7 29.1v146.5H715V338.9c0-.5 0-1.3-2.9-2.4-2.9-1.2-6-1.5-6.8-1.6H247.8c-.1.7-.1 1.5 0 1.7l.2 1.2v245c0 4.5.9 6.8 1.7 7.6.8.7 2.9.9 4 .8l1.4-.4 1 .1h185.4v28.8H256.9c-1 .1-2.3.2-3.9.2zm.4-28.8z"/><path class="st24" d="M422.5 528c-3.7 0-7.5-1.4-10.3-4.3L279 388.4c-5.6-5.7-5.5-14.8.2-20.3 5.7-5.6 14.8-5.5 20.3.2l133.2 135.3c5.6 5.7 5.5 14.8-.2 20.3-2.7 2.8-6.4 4.1-10 4.1z"/><path class="st24" d="M422.5 528h-94.2c-7.9 0-14.4-6.5-14.4-14.4s6.5-14.4 14.4-14.4h94.2c7.9 0 14.4 6.5 14.4 14.4s-6.4 14.4-14.4 14.4z"/><path class="st24" d="M422.5 528c-7.9 0-14.4-6.5-14.4-14.4V413.3c0-7.9 6.5-14.4 14.4-14.4s14.4 6.5 14.4 14.4v100.4c0 7.8-6.4 14.3-14.4 14.3zM773.8 725.6H510.6c-24.4 0-44.2-19.8-44.2-44.2V565.9c0-24.4 19.8-44.2 44.2-44.2h263.2c24.4 0 44.2 19.8 44.2 44.2v115.5c0 24.3-19.8 44.2-44.2 44.2zM510.6 550.5c-8.5 0-15.4 6.9-15.4 15.4v115.5c0 8.5 6.9 15.4 15.4 15.4h263.2c8.5 0 15.4-6.9 15.4-15.4V565.9c0-8.5-6.9-15.4-15.4-15.4H510.6z"/></g><g class="st23"><path class="st25" d="M253 619.9c-5.6 0-14.3-1.2-21.8-7.5-5.5-4.6-12.1-13.5-12.1-29.7V339.9c-.4-4.3-.8-15.5 6.6-24.3 3.7-4.3 10.5-9.5 22.1-9.5h458.6c1.4.1 8.8.5 16.6 3.8 13.1 5.4 20.7 16 20.7 29.1v146.5H715V338.9c0-.5 0-1.3-2.9-2.4-2.9-1.2-6-1.5-6.8-1.6H247.8c-.1.7-.1 1.5 0 1.7l.2 1.2v245c0 4.5.9 6.8 1.7 7.6.8.7 2.9.9 4 .8l1.4-.4 1 .1h185.4v28.8H256.9c-1 .1-2.3.2-3.9.2zm.4-28.8z"/><path class="st25" d="M422.5 528c-3.7 0-7.5-1.4-10.3-4.3L279 388.4c-5.6-5.7-5.5-14.8.2-20.3 5.7-5.6 14.8-5.5 20.3.2l133.2 135.3c5.6 5.7 5.5 14.8-.2 20.3-2.7 2.8-6.4 4.1-10 4.1z"/><path class="st25" d="M422.5 528h-94.2c-7.9 0-14.4-6.5-14.4-14.4s6.5-14.4 14.4-14.4h94.2c7.9 0 14.4 6.5 14.4 14.4s-6.4 14.4-14.4 14.4z"/><path class="st25" d="M422.5 528c-7.9 0-14.4-6.5-14.4-14.4V413.3c0-7.9 6.5-14.4 14.4-14.4s14.4 6.5 14.4 14.4v100.4c0 7.8-6.4 14.3-14.4 14.3zM773.8 725.6H510.6c-24.4 0-44.2-19.8-44.2-44.2V565.9c0-24.4 19.8-44.2 44.2-44.2h263.2c24.4 0 44.2 19.8 44.2 44.2v115.5c0 24.3-19.8 44.2-44.2 44.2zM510.6 550.5c-8.5 0-15.4 6.9-15.4 15.4v115.5c0 8.5 6.9 15.4 15.4 15.4h263.2c8.5 0 15.4-6.9 15.4-15.4V565.9c0-8.5-6.9-15.4-15.4-15.4H510.6z"/></g><g class="st26"><path class="st27" d="M253 619.9c-5.6 0-14.3-1.2-21.8-7.5-5.5-4.6-12.1-13.5-12.1-29.7V339.9c-.4-4.3-.8-15.5 6.6-24.3 3.7-4.3 10.5-9.5 22.1-9.5h458.6c1.4.1 8.8.5 16.6 3.8 13.1 5.4 20.7 16 20.7 29.1v146.5H715V338.9c0-.5 0-1.3-2.9-2.4-2.9-1.2-6-1.5-6.8-1.6H247.8c-.1.7-.1 1.5 0 1.7l.2 1.2v245c0 4.5.9 6.8 1.7 7.6.8.7 2.9.9 4 .8l1.4-.4 1 .1h185.4v28.8H256.9c-1 .1-2.3.2-3.9.2zm.4-28.8z"/><path class="st27" d="M422.5 528c-3.7 0-7.5-1.4-10.3-4.3L279 388.4c-5.6-5.7-5.5-14.8.2-20.3 5.7-5.6 14.8-5.5 20.3.2l133.2 135.3c5.6 5.7 5.5 14.8-.2 20.3-2.7 2.8-6.4 4.1-10 4.1z"/><path class="st27" d="M422.5 528h-94.2c-7.9 0-14.4-6.5-14.4-14.4s6.5-14.4 14.4-14.4h94.2c7.9 0 14.4 6.5 14.4 14.4s-6.4 14.4-14.4 14.4z"/><path class="st27" d="M422.5 528c-7.9 0-14.4-6.5-14.4-14.4V413.3c0-7.9 6.5-14.4 14.4-14.4s14.4 6.5 14.4 14.4v100.4c0 7.8-6.4 14.3-14.4 14.3zM773.8 725.6H510.6c-24.4 0-44.2-19.8-44.2-44.2V565.9c0-24.4 19.8-44.2 44.2-44.2h263.2c24.4 0 44.2 19.8 44.2 44.2v115.5c0 24.3-19.8 44.2-44.2 44.2zM510.6 550.5c-8.5 0-15.4 6.9-15.4 15.4v115.5c0 8.5 6.9 15.4 15.4 15.4h263.2c8.5 0 15.4-6.9 15.4-15.4V565.9c0-8.5-6.9-15.4-15.4-15.4H510.6z"/></g><g class="st26"><path class="st28" d="M253 619.9c-5.6 0-14.3-1.2-21.8-7.5-5.5-4.6-12.1-13.5-12.1-29.7V339.9c-.4-4.3-.8-15.5 6.6-24.3 3.7-4.3 10.5-9.5 22.1-9.5h458.6c1.4.1 8.8.5 16.6 3.8 13.1 5.4 20.7 16 20.7 29.1v146.5H715V338.9c0-.5 0-1.3-2.9-2.4-2.9-1.2-6-1.5-6.8-1.6H247.8c-.1.7-.1 1.5 0 1.7l.2 1.2v245c0 4.5.9 6.8 1.7 7.6.8.7 2.9.9 4 .8l1.4-.4 1 .1h185.4v28.8H256.9c-1 .1-2.3.2-3.9.2zm.4-28.8z"/><path class="st28" d="M422.5 528c-3.7 0-7.5-1.4-10.3-4.3L279 388.4c-5.6-5.7-5.5-14.8.2-20.3 5.7-5.6 14.8-5.5 20.3.2l133.2 135.3c5.6 5.7 5.5 14.8-.2 20.3-2.7 2.8-6.4 4.1-10 4.1z"/><path class="st28" d="M422.5 528h-94.2c-7.9 0-14.4-6.5-14.4-14.4s6.5-14.4 14.4-14.4h94.2c7.9 0 14.4 6.5 14.4 14.4s-6.4 14.4-14.4 14.4z"/><path class="st28" d="M422.5 528c-7.9 0-14.4-6.5-14.4-14.4V413.3c0-7.9 6.5-14.4 14.4-14.4s14.4 6.5 14.4 14.4v100.4c0 7.8-6.4 14.3-14.4 14.3zM773.8 725.6H510.6c-24.4 0-44.2-19.8-44.2-44.2V565.9c0-24.4 19.8-44.2 44.2-44.2h263.2c24.4 0 44.2 19.8 44.2 44.2v115.5c0 24.3-19.8 44.2-44.2 44.2zM510.6 550.5c-8.5 0-15.4 6.9-15.4 15.4v115.5c0 8.5 6.9 15.4 15.4 15.4h263.2c8.5 0 15.4-6.9 15.4-15.4V565.9c0-8.5-6.9-15.4-15.4-15.4H510.6z"/></g><g class="st29"><path class="st30" d="M253 619.9c-5.6 0-14.3-1.2-21.8-7.5-5.5-4.6-12.1-13.5-12.1-29.7V339.9c-.4-4.3-.8-15.5 6.6-24.3 3.7-4.3 10.5-9.5 22.1-9.5h458.6c1.4.1 8.8.5 16.6 3.8 13.1 5.4 20.7 16 20.7 29.1v146.5H715V338.9c0-.5 0-1.3-2.9-2.4-2.9-1.2-6-1.5-6.8-1.6H247.8c-.1.7-.1 1.5 0 1.7l.2 1.2v245c0 4.5.9 6.8 1.7 7.6.8.7 2.9.9 4 .8l1.4-.4 1 .1h185.4v28.8H256.9c-1 .1-2.3.2-3.9.2zm.4-28.8z"/><path class="st30" d="M422.5 528c-3.7 0-7.5-1.4-10.3-4.3L279 388.4c-5.6-5.7-5.5-14.8.2-20.3 5.7-5.6 14.8-5.5 20.3.2l133.2 135.3c5.6 5.7 5.5 14.8-.2 20.3-2.7 2.8-6.4 4.1-10 4.1z"/><path class="st30" d="M422.5 528h-94.2c-7.9 0-14.4-6.5-14.4-14.4s6.5-14.4 14.4-14.4h94.2c7.9 0 14.4 6.5 14.4 14.4s-6.4 14.4-14.4 14.4z"/><path class="st30" d="M422.5 528c-7.9 0-14.4-6.5-14.4-14.4V413.3c0-7.9 6.5-14.4 14.4-14.4s14.4 6.5 14.4 14.4v100.4c0 7.8-6.4 14.3-14.4 14.3zM773.8 725.6H510.6c-24.4 0-44.2-19.8-44.2-44.2V565.9c0-24.4 19.8-44.2 44.2-44.2h263.2c24.4 0 44.2 19.8 44.2 44.2v115.5c0 24.3-19.8 44.2-44.2 44.2zM510.6 550.5c-8.5 0-15.4 6.9-15.4 15.4v115.5c0 8.5 6.9 15.4 15.4 15.4h263.2c8.5 0 15.4-6.9 15.4-15.4V565.9c0-8.5-6.9-15.4-15.4-15.4H510.6z"/></g><g class="st29"><path class="st31" d="M253 619.9c-5.6 0-14.3-1.2-21.8-7.5-5.5-4.6-12.1-13.5-12.1-29.7V339.9c-.4-4.3-.8-15.5 6.6-24.3 3.7-4.3 10.5-9.5 22.1-9.5h458.6c1.4.1 8.8.5 16.6 3.8 13.1 5.4 20.7 16 20.7 29.1v146.5H715V338.9c0-.5 0-1.3-2.9-2.4-2.9-1.2-6-1.5-6.8-1.6H247.8c-.1.7-.1 1.5 0 1.7l.2 1.2v245c0 4.5.9 6.8 1.7 7.6.8.7 2.9.9 4 .8l1.4-.4 1 .1h185.4v28.8H256.9c-1 .1-2.3.2-3.9.2zm.4-28.8z"/><path class="st31" d="M422.5 528c-3.7 0-7.5-1.4-10.3-4.3L279 388.4c-5.6-5.7-5.5-14.8.2-20.3 5.7-5.6 14.8-5.5 20.3.2l133.2 135.3c5.6 5.7 5.5 14.8-.2 20.3-2.7 2.8-6.4 4.1-10 4.1z"/><path class="st31" d="M422.5 528h-94.2c-7.9 0-14.4-6.5-14.4-14.4s6.5-14.4 14.4-14.4h94.2c7.9 0 14.4 6.5 14.4 14.4s-6.4 14.4-14.4 14.4z"/><path class="st31" d="M422.5 528c-7.9 0-14.4-6.5-14.4-14.4V413.3c0-7.9 6.5-14.4 14.4-14.4s14.4 6.5 14.4 14.4v100.4c0 7.8-6.4 14.3-14.4 14.3zM773.8 725.6H510.6c-24.4 0-44.2-19.8-44.2-44.2V565.9c0-24.4 19.8-44.2 44.2-44.2h263.2c24.4 0 44.2 19.8 44.2 44.2v115.5c0 24.3-19.8 44.2-44.2 44.2zM510.6 550.5c-8.5 0-15.4 6.9-15.4 15.4v115.5c0 8.5 6.9 15.4 15.4 15.4h263.2c8.5 0 15.4-6.9 15.4-15.4V565.9c0-8.5-6.9-15.4-15.4-15.4H510.6z"/></g><g class="st32"><path class="st33" d="M253 619.9c-5.6 0-14.3-1.2-21.8-7.5-5.5-4.6-12.1-13.5-12.1-29.7V339.9c-.4-4.3-.8-15.5 6.6-24.3 3.7-4.3 10.5-9.5 22.1-9.5h458.6c1.4.1 8.8.5 16.6 3.8 13.1 5.4 20.7 16 20.7 29.1v146.5H715V338.9c0-.5 0-1.3-2.9-2.4-2.9-1.2-6-1.5-6.8-1.6H247.8c-.1.7-.1 1.5 0 1.7l.2 1.2v245c0 4.5.9 6.8 1.7 7.6.8.7 2.9.9 4 .8l1.4-.4 1 .1h185.4v28.8H256.9c-1 .1-2.3.2-3.9.2zm.4-28.8z"/><path class="st33" d="M422.5 528c-3.7 0-7.5-1.4-10.3-4.3L279 388.4c-5.6-5.7-5.5-14.8.2-20.3 5.7-5.6 14.8-5.5 20.3.2l133.2 135.3c5.6 5.7 5.5 14.8-.2 20.3-2.7 2.8-6.4 4.1-10 4.1z"/><path class="st33" d="M422.5 528h-94.2c-7.9 0-14.4-6.5-14.4-14.4s6.5-14.4 14.4-14.4h94.2c7.9 0 14.4 6.5 14.4 14.4s-6.4 14.4-14.4 14.4z"/><path class="st33" d="M422.5 528c-7.9 0-14.4-6.5-14.4-14.4V413.3c0-7.9 6.5-14.4 14.4-14.4s14.4 6.5 14.4 14.4v100.4c0 7.8-6.4 14.3-14.4 14.3zM773.8 725.6H510.6c-24.4 0-44.2-19.8-44.2-44.2V565.9c0-24.4 19.8-44.2 44.2-44.2h263.2c24.4 0 44.2 19.8 44.2 44.2v115.5c0 24.3-19.8 44.2-44.2 44.2zM510.6 550.5c-8.5 0-15.4 6.9-15.4 15.4v115.5c0 8.5 6.9 15.4 15.4 15.4h263.2c8.5 0 15.4-6.9 15.4-15.4V565.9c0-8.5-6.9-15.4-15.4-15.4H510.6z"/></g><g class="st32"><path class="st34" d="M253 619.9c-5.6 0-14.3-1.2-21.8-7.5-5.5-4.6-12.1-13.5-12.1-29.7V339.9c-.4-4.3-.8-15.5 6.6-24.3 3.7-4.3 10.5-9.5 22.1-9.5h458.6c1.4.1 8.8.5 16.6 3.8 13.1 5.4 20.7 16 20.7 29.1v146.5H715V338.9c0-.5 0-1.3-2.9-2.4-2.9-1.2-6-1.5-6.8-1.6H247.8c-.1.7-.1 1.5 0 1.7l.2 1.2v245c0 4.5.9 6.8 1.7 7.6.8.7 2.9.9 4 .8l1.4-.4 1 .1h185.4v28.8H256.9c-1 .1-2.3.2-3.9.2zm.4-28.8z"/><path class="st34" d="M422.5 528c-3.7 0-7.5-1.4-10.3-4.3L279 388.4c-5.6-5.7-5.5-14.8.2-20.3 5.7-5.6 14.8-5.5 20.3.2l133.2 135.3c5.6 5.7 5.5 14.8-.2 20.3-2.7 2.8-6.4 4.1-10 4.1z"/><path class="st34" d="M422.5 528h-94.2c-7.9 0-14.4-6.5-14.4-14.4s6.5-14.4 14.4-14.4h94.2c7.9 0 14.4 6.5 14.4 14.4s-6.4 14.4-14.4 14.4z"/><path class="st34" d="M422.5 528c-7.9 0-14.4-6.5-14.4-14.4V413.3c0-7.9 6.5-14.4 14.4-14.4s14.4 6.5 14.4 14.4v100.4c0 7.8-6.4 14.3-14.4 14.3zM773.8 725.6H510.6c-24.4 0-44.2-19.8-44.2-44.2V565.9c0-24.4 19.8-44.2 44.2-44.2h263.2c24.4 0 44.2 19.8 44.2 44.2v115.5c0 24.3-19.8 44.2-44.2 44.2zM510.6 550.5c-8.5 0-15.4 6.9-15.4 15.4v115.5c0 8.5 6.9 15.4 15.4 15.4h263.2c8.5 0 15.4-6.9 15.4-15.4V565.9c0-8.5-6.9-15.4-15.4-15.4H510.6z"/></g><g class="st35"><path class="st36" d="M253 619.9c-5.6 0-14.3-1.2-21.8-7.5-5.5-4.6-12.1-13.5-12.1-29.7V339.9c-.4-4.3-.8-15.5 6.6-24.3 3.7-4.3 10.5-9.5 22.1-9.5h458.6c1.4.1 8.8.5 16.6 3.8 13.1 5.4 20.7 16 20.7 29.1v146.5H715V338.9c0-.5 0-1.3-2.9-2.4-2.9-1.2-6-1.5-6.8-1.6H247.8c-.1.7-.1 1.5 0 1.7l.2 1.2v245c0 4.5.9 6.8 1.7 7.6.8.7 2.9.9 4 .8l1.4-.4 1 .1h185.4v28.8H256.9c-1 .1-2.3.2-3.9.2zm.4-28.8z"/><path class="st36" d="M422.5 528c-3.7 0-7.5-1.4-10.3-4.3L279 388.4c-5.6-5.7-5.5-14.8.2-20.3 5.7-5.6 14.8-5.5 20.3.2l133.2 135.3c5.6 5.7 5.5 14.8-.2 20.3-2.7 2.8-6.4 4.1-10 4.1z"/><path class="st36" d="M422.5 528h-94.2c-7.9 0-14.4-6.5-14.4-14.4s6.5-14.4 14.4-14.4h94.2c7.9 0 14.4 6.5 14.4 14.4s-6.4 14.4-14.4 14.4z"/><path class="st36" d="M422.5 528c-7.9 0-14.4-6.5-14.4-14.4V413.3c0-7.9 6.5-14.4 14.4-14.4s14.4 6.5 14.4 14.4v100.4c0 7.8-6.4 14.3-14.4 14.3zM773.8 725.6H510.6c-24.4 0-44.2-19.8-44.2-44.2V565.9c0-24.4 19.8-44.2 44.2-44.2h263.2c24.4 0 44.2 19.8 44.2 44.2v115.5c0 24.3-19.8 44.2-44.2 44.2zM510.6 550.5c-8.5 0-15.4 6.9-15.4 15.4v115.5c0 8.5 6.9 15.4 15.4 15.4h263.2c8.5 0 15.4-6.9 15.4-15.4V565.9c0-8.5-6.9-15.4-15.4-15.4H510.6z"/></g><g class="st35"><path class="st37" d="M253 619.9c-5.6 0-14.3-1.2-21.8-7.5-5.5-4.6-12.1-13.5-12.1-29.7V339.9c-.4-4.3-.8-15.5 6.6-24.3 3.7-4.3 10.5-9.5 22.1-9.5h458.6c1.4.1 8.8.5 16.6 3.8 13.1 5.4 20.7 16 20.7 29.1v146.5H715V338.9c0-.5 0-1.3-2.9-2.4-2.9-1.2-6-1.5-6.8-1.6H247.8c-.1.7-.1 1.5 0 1.7l.2 1.2v245c0 4.5.9 6.8 1.7 7.6.8.7 2.9.9 4 .8l1.4-.4 1 .1h185.4v28.8H256.9c-1 .1-2.3.2-3.9.2zm.4-28.8z"/><path class="st37" d="M422.5 528c-3.7 0-7.5-1.4-10.3-4.3L279 388.4c-5.6-5.7-5.5-14.8.2-20.3 5.7-5.6 14.8-5.5 20.3.2l133.2 135.3c5.6 5.7 5.5 14.8-.2 20.3-2.7 2.8-6.4 4.1-10 4.1z"/><path class="st37" d="M422.5 528h-94.2c-7.9 0-14.4-6.5-14.4-14.4s6.5-14.4 14.4-14.4h94.2c7.9 0 14.4 6.5 14.4 14.4s-6.4 14.4-14.4 14.4z"/><path class="st37" d="M422.5 528c-7.9 0-14.4-6.5-14.4-14.4V413.3c0-7.9 6.5-14.4 14.4-14.4s14.4 6.5 14.4 14.4v100.4c0 7.8-6.4 14.3-14.4 14.3zM773.8 725.6H510.6c-24.4 0-44.2-19.8-44.2-44.2V565.9c0-24.4 19.8-44.2 44.2-44.2h263.2c24.4 0 44.2 19.8 44.2 44.2v115.5c0 24.3-19.8 44.2-44.2 44.2zM510.6 550.5c-8.5 0-15.4 6.9-15.4 15.4v115.5c0 8.5 6.9 15.4 15.4 15.4h263.2c8.5 0 15.4-6.9 15.4-15.4V565.9c0-8.5-6.9-15.4-15.4-15.4H510.6z"/></g><g class="st38"><path class="st39" d="M253 619.9c-5.6 0-14.3-1.2-21.8-7.5-5.5-4.6-12.1-13.5-12.1-29.7V339.9c-.4-4.3-.8-15.5 6.6-24.3 3.7-4.3 10.5-9.5 22.1-9.5h458.6c1.4.1 8.8.5 16.6 3.8 13.1 5.4 20.7 16 20.7 29.1v146.5H715V338.9c0-.5 0-1.3-2.9-2.4-2.9-1.2-6-1.5-6.8-1.6H247.8c-.1.7-.1 1.5 0 1.7l.2 1.2v245c0 4.5.9 6.8 1.7 7.6.8.7 2.9.9 4 .8l1.4-.4 1 .1h185.4v28.8H256.9c-1 .1-2.3.2-3.9.2zm.4-28.8z"/><path class="st39" d="M422.5 528c-3.7 0-7.5-1.4-10.3-4.3L279 388.4c-5.6-5.7-5.5-14.8.2-20.3 5.7-5.6 14.8-5.5 20.3.2l133.2 135.3c5.6 5.7 5.5 14.8-.2 20.3-2.7 2.8-6.4 4.1-10 4.1z"/><path class="st39" d="M422.5 528h-94.2c-7.9 0-14.4-6.5-14.4-14.4s6.5-14.4 14.4-14.4h94.2c7.9 0 14.4 6.5 14.4 14.4s-6.4 14.4-14.4 14.4z"/><path class="st39" d="M422.5 528c-7.9 0-14.4-6.5-14.4-14.4V413.3c0-7.9 6.5-14.4 14.4-14.4s14.4 6.5 14.4 14.4v100.4c0 7.8-6.4 14.3-14.4 14.3zM773.8 725.6H510.6c-24.4 0-44.2-19.8-44.2-44.2V565.9c0-24.4 19.8-44.2 44.2-44.2h263.2c24.4 0 44.2 19.8 44.2 44.2v115.5c0 24.3-19.8 44.2-44.2 44.2zM510.6 550.5c-8.5 0-15.4 6.9-15.4 15.4v115.5c0 8.5 6.9 15.4 15.4 15.4h263.2c8.5 0 15.4-6.9 15.4-15.4V565.9c0-8.5-6.9-15.4-15.4-15.4H510.6z"/></g><g class="st38"><path class="st40" d="M253 619.9c-5.6 0-14.3-1.2-21.8-7.5-5.5-4.6-12.1-13.5-12.1-29.7V339.9c-.4-4.3-.8-15.5 6.6-24.3 3.7-4.3 10.5-9.5 22.1-9.5h458.6c1.4.1 8.8.5 16.6 3.8 13.1 5.4 20.7 16 20.7 29.1v146.5H715V338.9c0-.5 0-1.3-2.9-2.4-2.9-1.2-6-1.5-6.8-1.6H247.8c-.1.7-.1 1.5 0 1.7l.2 1.2v245c0 4.5.9 6.8 1.7 7.6.8.7 2.9.9 4 .8l1.4-.4 1 .1h185.4v28.8H256.9c-1 .1-2.3.2-3.9.2zm.4-28.8z"/><path class="st40" d="M422.5 528c-3.7 0-7.5-1.4-10.3-4.3L279 388.4c-5.6-5.7-5.5-14.8.2-20.3 5.7-5.6 14.8-5.5 20.3.2l133.2 135.3c5.6 5.7 5.5 14.8-.2 20.3-2.7 2.8-6.4 4.1-10 4.1z"/><path class="st40" d="M422.5 528h-94.2c-7.9 0-14.4-6.5-14.4-14.4s6.5-14.4 14.4-14.4h94.2c7.9 0 14.4 6.5 14.4 14.4s-6.4 14.4-14.4 14.4z"/><path class="st40" d="M422.5 528c-7.9 0-14.4-6.5-14.4-14.4V413.3c0-7.9 6.5-14.4 14.4-14.4s14.4 6.5 14.4 14.4v100.4c0 7.8-6.4 14.3-14.4 14.3zM773.8 725.6H510.6c-24.4 0-44.2-19.8-44.2-44.2V565.9c0-24.4 19.8-44.2 44.2-44.2h263.2c24.4 0 44.2 19.8 44.2 44.2v115.5c0 24.3-19.8 44.2-44.2 44.2zM510.6 550.5c-8.5 0-15.4 6.9-15.4 15.4v115.5c0 8.5 6.9 15.4 15.4 15.4h263.2c8.5 0 15.4-6.9 15.4-15.4V565.9c0-8.5-6.9-15.4-15.4-15.4H510.6z"/></g><g class="st41"><path class="st42" d="M253 619.9c-5.6 0-14.3-1.2-21.8-7.5-5.5-4.6-12.1-13.5-12.1-29.7V339.9c-.4-4.3-.8-15.5 6.6-24.3 3.7-4.3 10.5-9.5 22.1-9.5h458.6c1.4.1 8.8.5 16.6 3.8 13.1 5.4 20.7 16 20.7 29.1v146.5H715V338.9c0-.5 0-1.3-2.9-2.4-2.9-1.2-6-1.5-6.8-1.6H247.8c-.1.7-.1 1.5 0 1.7l.2 1.2v245c0 4.5.9 6.8 1.7 7.6.8.7 2.9.9 4 .8l1.4-.4 1 .1h185.4v28.8H256.9c-1 .1-2.3.2-3.9.2zm.4-28.8z"/><path class="st42" d="M422.5 528c-3.7 0-7.5-1.4-10.3-4.3L279 388.4c-5.6-5.7-5.5-14.8.2-20.3 5.7-5.6 14.8-5.5 20.3.2l133.2 135.3c5.6 5.7 5.5 14.8-.2 20.3-2.7 2.8-6.4 4.1-10 4.1z"/><path class="st42" d="M422.5 528h-94.2c-7.9 0-14.4-6.5-14.4-14.4s6.5-14.4 14.4-14.4h94.2c7.9 0 14.4 6.5 14.4 14.4s-6.4 14.4-14.4 14.4z"/><path class="st42" d="M422.5 528c-7.9 0-14.4-6.5-14.4-14.4V413.3c0-7.9 6.5-14.4 14.4-14.4s14.4 6.5 14.4 14.4v100.4c0 7.8-6.4 14.3-14.4 14.3zM773.8 725.6H510.6c-24.4 0-44.2-19.8-44.2-44.2V565.9c0-24.4 19.8-44.2 44.2-44.2h263.2c24.4 0 44.2 19.8 44.2 44.2v115.5c0 24.3-19.8 44.2-44.2 44.2zM510.6 550.5c-8.5 0-15.4 6.9-15.4 15.4v115.5c0 8.5 6.9 15.4 15.4 15.4h263.2c8.5 0 15.4-6.9 15.4-15.4V565.9c0-8.5-6.9-15.4-15.4-15.4H510.6z"/></g><g class="st41"><path class="st43" d="M253 619.9c-5.6 0-14.3-1.2-21.8-7.5-5.5-4.6-12.1-13.5-12.1-29.7V339.9c-.4-4.3-.8-15.5 6.6-24.3 3.7-4.3 10.5-9.5 22.1-9.5h458.6c1.4.1 8.8.5 16.6 3.8 13.1 5.4 20.7 16 20.7 29.1v146.5H715V338.9c0-.5 0-1.3-2.9-2.4-2.9-1.2-6-1.5-6.8-1.6H247.8c-.1.7-.1 1.5 0 1.7l.2 1.2v245c0 4.5.9 6.8 1.7 7.6.8.7 2.9.9 4 .8l1.4-.4 1 .1h185.4v28.8H256.9c-1 .1-2.3.2-3.9.2zm.4-28.8z"/><path class="st43" d="M422.5 528c-3.7 0-7.5-1.4-10.3-4.3L279 388.4c-5.6-5.7-5.5-14.8.2-20.3 5.7-5.6 14.8-5.5 20.3.2l133.2 135.3c5.6 5.7 5.5 14.8-.2 20.3-2.7 2.8-6.4 4.1-10 4.1z"/><path class="st43" d="M422.5 528h-94.2c-7.9 0-14.4-6.5-14.4-14.4s6.5-14.4 14.4-14.4h94.2c7.9 0 14.4 6.5 14.4 14.4s-6.4 14.4-14.4 14.4z"/><path class="st43" d="M422.5 528c-7.9 0-14.4-6.5-14.4-14.4V413.3c0-7.9 6.5-14.4 14.4-14.4s14.4 6.5 14.4 14.4v100.4c0 7.8-6.4 14.3-14.4 14.3zM773.8 725.6H510.6c-24.4 0-44.2-19.8-44.2-44.2V565.9c0-24.4 19.8-44.2 44.2-44.2h263.2c24.4 0 44.2 19.8 44.2 44.2v115.5c0 24.3-19.8 44.2-44.2 44.2zM510.6 550.5c-8.5 0-15.4 6.9-15.4 15.4v115.5c0 8.5 6.9 15.4 15.4 15.4h263.2c8.5 0 15.4-6.9 15.4-15.4V565.9c0-8.5-6.9-15.4-15.4-15.4H510.6z"/></g><g class="st44"><path class="st45" d="M253 619.9c-5.6 0-14.3-1.2-21.8-7.5-5.5-4.6-12.1-13.5-12.1-29.7V339.9c-.4-4.3-.8-15.5 6.6-24.3 3.7-4.3 10.5-9.5 22.1-9.5h458.6c1.4.1 8.8.5 16.6 3.8 13.1 5.4 20.7 16 20.7 29.1v146.5H715V338.9c0-.5 0-1.3-2.9-2.4-2.9-1.2-6-1.5-6.8-1.6H247.8c-.1.7-.1 1.5 0 1.7l.2 1.2v245c0 4.5.9 6.8 1.7 7.6.8.7 2.9.9 4 .8l1.4-.4 1 .1h185.4v28.8H256.9c-1 .1-2.3.2-3.9.2zm.4-28.8z"/><path class="st45" d="M422.5 528c-3.7 0-7.5-1.4-10.3-4.3L279 388.4c-5.6-5.7-5.5-14.8.2-20.3 5.7-5.6 14.8-5.5 20.3.2l133.2 135.3c5.6 5.7 5.5 14.8-.2 20.3-2.7 2.8-6.4 4.1-10 4.1z"/><path class="st45" d="M422.5 528h-94.2c-7.9 0-14.4-6.5-14.4-14.4s6.5-14.4 14.4-14.4h94.2c7.9 0 14.4 6.5 14.4 14.4s-6.4 14.4-14.4 14.4z"/><path class="st45" d="M422.5 528c-7.9 0-14.4-6.5-14.4-14.4V413.3c0-7.9 6.5-14.4 14.4-14.4s14.4 6.5 14.4 14.4v100.4c0 7.8-6.4 14.3-14.4 14.3zM773.8 725.6H510.6c-24.4 0-44.2-19.8-44.2-44.2V565.9c0-24.4 19.8-44.2 44.2-44.2h263.2c24.4 0 44.2 19.8 44.2 44.2v115.5c0 24.3-19.8 44.2-44.2 44.2zM510.6 550.5c-8.5 0-15.4 6.9-15.4 15.4v115.5c0 8.5 6.9 15.4 15.4 15.4h263.2c8.5 0 15.4-6.9 15.4-15.4V565.9c0-8.5-6.9-15.4-15.4-15.4H510.6z"/></g><g class="st44"><path class="st46" d="M253 619.9c-5.6 0-14.3-1.2-21.8-7.5-5.5-4.6-12.1-13.5-12.1-29.7V339.9c-.4-4.3-.8-15.5 6.6-24.3 3.7-4.3 10.5-9.5 22.1-9.5h458.6c1.4.1 8.8.5 16.6 3.8 13.1 5.4 20.7 16 20.7 29.1v146.5H715V338.9c0-.5 0-1.3-2.9-2.4-2.9-1.2-6-1.5-6.8-1.6H247.8c-.1.7-.1 1.5 0 1.7l.2 1.2v245c0 4.5.9 6.8 1.7 7.6.8.7 2.9.9 4 .8l1.4-.4 1 .1h185.4v28.8H256.9c-1 .1-2.3.2-3.9.2zm.4-28.8z"/><path class="st46" d="M422.5 528c-3.7 0-7.5-1.4-10.3-4.3L279 388.4c-5.6-5.7-5.5-14.8.2-20.3 5.7-5.6 14.8-5.5 20.3.2l133.2 135.3c5.6 5.7 5.5 14.8-.2 20.3-2.7 2.8-6.4 4.1-10 4.1z"/><path class="st46" d="M422.5 528h-94.2c-7.9 0-14.4-6.5-14.4-14.4s6.5-14.4 14.4-14.4h94.2c7.9 0 14.4 6.5 14.4 14.4s-6.4 14.4-14.4 14.4z"/><path class="st46" d="M422.5 528c-7.9 0-14.4-6.5-14.4-14.4V413.3c0-7.9 6.5-14.4 14.4-14.4s14.4 6.5 14.4 14.4v100.4c0 7.8-6.4 14.3-14.4 14.3zM773.8 725.6H510.6c-24.4 0-44.2-19.8-44.2-44.2V565.9c0-24.4 19.8-44.2 44.2-44.2h263.2c24.4 0 44.2 19.8 44.2 44.2v115.5c0 24.3-19.8 44.2-44.2 44.2zM510.6 550.5c-8.5 0-15.4 6.9-15.4 15.4v115.5c0 8.5 6.9 15.4 15.4 15.4h263.2c8.5 0 15.4-6.9 15.4-15.4V565.9c0-8.5-6.9-15.4-15.4-15.4H510.6z"/></g></g><g id="Symbol"><path class="st47" d="M435.1 599H249.7s-22.5 4.1-22.5-22.5V332.7s-3.1-18.5 14.3-18.5h457.9s23.6 1 23.6 18.5v146.5"/><path class="st48" d="M416.1 507.3L283 372M321.9 507.3h94.2M416.1 407v100.3"/><path class="st47" d="M767.5 704.9H504.4c-16.4 0-29.8-13.4-29.8-29.8V559.6c0-16.4 13.4-29.8 29.8-29.8h263.2c16.4 0 29.8 13.4 29.8 29.8v115.5c-.1 16.4-13.5 29.8-29.9 29.8z"/></g></svg>