<svg xmlns="http://www.w3.org/2000/svg" viewBox="0 0 1024 1024"><g opacity=".25"><path fill="#323232" d="M512.1 116.8c-28.9 0-54.7 14.9-69.1 39.9L71.6 799.9c-14.4 25-14.4 54.8 0 79.8s40.3 39.9 70.7 36.9h742.6c27.4 3 53.2-11.9 67.6-36.9 14.4-25 14.4-54.8 0-79.8L581.2 156.7c-14.4-25-40.2-39.9-69.1-39.9z"/><path d="M512.1 116.8c28.9 0 54.7 14.9 69.1 39.9l371.3 643.1c14.4 25 14.4 54.8 0 79.8-13.2 22.9-35.9 37.3-60.6 37.3-2.3 0-4.7-.1-7-.4H142.3c-2.6.3-5.2.4-7.7.4-27 0-49.7-14.4-62.9-37.3-14.4-25-14.4-54.8 0-79.8L443 156.7c14.4-25 40.2-39.9 69.1-39.9m0-1c-29.2 0-55.4 15.1-70 40.4L70.8 799.4c-14.6 25.3-14.6 55.5 0 80.8 13.9 24 37.1 37.8 63.8 37.8 2.6 0 5.2-.1 7.8-.4h742.5c2.3.3 4.7.4 7.1.4 12.2 0 24.4-3.5 35.2-10.2 10.6-6.6 19.7-16.1 26.3-27.6 14.6-25.3 14.6-55.5 0-80.8L582.1 156.2c-14.6-25.3-40.8-40.4-70-40.4z" opacity=".16"/><path d="M512.1 116.8c28.9 0 54.7 14.9 69.1 39.9l371.3 643.1c14.4 25 14.4 54.8 0 79.8-13.2 22.9-35.9 37.3-60.6 37.3-2.3 0-4.7-.1-7-.4H142.3c-2.6.3-5.2.4-7.7.4-27 0-49.7-14.4-62.9-37.3-14.4-25-14.4-54.8 0-79.8L443 156.7c14.4-25 40.2-39.9 69.1-39.9m0-2c-29.6 0-56.1 15.3-70.9 40.9L69.9 798.9c-14.8 25.6-14.8 56.2 0 81.8 6.7 11.7 16.1 21.3 27 27.9 11.4 6.9 24.1 10.4 37.7 10.4 2.6 0 5.2-.1 7.8-.4h742.4c2.4.3 4.7.4 7.1.4 12.4 0 24.7-3.6 35.7-10.4 10.8-6.7 20-16.3 26.7-27.9 14.8-25.6 14.8-56.2 0-81.8L583 155.7c-14.8-25.6-41.3-40.9-70.9-40.9z" opacity=".16"/><path d="M512.1 116.8c28.9 0 54.7 14.9 69.1 39.9l371.3 643.1c14.4 25 14.4 54.8 0 79.8-13.2 22.9-35.9 37.3-60.6 37.3-2.3 0-4.7-.1-7-.4H142.3c-2.6.3-5.2.4-7.7.4-27 0-49.7-14.4-62.9-37.3-14.4-25-14.4-54.8 0-79.8L443 156.7c14.4-25 40.2-39.9 69.1-39.9m0-3c-29.9 0-56.8 15.5-71.7 41.4L69 798.4c-15 25.9-15 56.9 0 82.8 6.8 11.8 16.3 21.6 27.3 28.3 11.5 7 24.4 10.5 38.2 10.5 2.6 0 5.2-.1 7.9-.4h742.3c2.4.3 4.8.4 7.2.4 12.6 0 25.1-3.6 36.2-10.5 10.9-6.8 20.2-16.5 27-28.3 15-25.9 15-56.9 0-82.8L583.8 155.2c-14.9-25.9-41.8-41.4-71.7-41.4z" opacity=".14"/><path d="M512.1 116.8c28.9 0 54.7 14.9 69.1 39.9l371.3 643.1c14.4 25 14.4 54.8 0 79.8-13.2 22.9-35.9 37.3-60.6 37.3-2.3 0-4.7-.1-7-.4H142.3c-2.6.3-5.2.4-7.7.4-27 0-49.7-14.4-62.9-37.3-14.4-25-14.4-54.8 0-79.8L443 156.7c14.4-25 40.2-39.9 69.1-39.9m0-4c-30.3 0-57.5 15.7-72.6 41.9L68.2 797.9c-15.2 26.2-15.2 57.6 0 83.8 6.9 12 16.5 21.9 27.7 28.6 11.7 7.1 24.7 10.6 38.7 10.6 2.6 0 5.3-.1 7.9-.4h742.2c2.4.3 4.8.4 7.2.4 12.8 0 25.5-3.7 36.7-10.7 11-6.9 20.5-16.7 27.4-28.6 15.2-26.2 15.2-57.6 0-83.8L584.7 154.7c-15.2-26.2-42.3-41.9-72.6-41.9z" opacity=".14"/><path d="M512.1 116.8c28.9 0 54.7 14.9 69.1 39.9l371.3 643.1c14.4 25 14.4 54.8 0 79.8-13.2 22.9-35.9 37.3-60.6 37.3-2.3 0-4.7-.1-7-.4H142.3c-2.6.3-5.2.4-7.7.4-27 0-49.7-14.4-62.9-37.3-14.4-25-14.4-54.8 0-79.8L443 156.7c14.4-25 40.2-39.9 69.1-39.9m0-5c-30.7 0-58.1 15.9-73.5 42.4L67.3 797.4C52 824 52 855.7 67.3 882.2c7 12.1 16.7 22.1 28 29 11.9 7.2 25.1 10.8 39.2 10.8 2.6 0 5.3-.1 8-.4h742.1c2.4.3 4.9.4 7.3.4 13 0 25.9-3.7 37.3-10.8 11.2-6.9 20.8-17 27.7-29 15.3-26.6 15.3-58.3 0-84.8L585.6 154.2c-15.4-26.5-42.8-42.4-73.5-42.4z" opacity=".12"/><path d="M512.1 116.8c28.9 0 54.7 14.9 69.1 39.9l371.3 643.1c14.4 25 14.4 54.8 0 79.8-13.2 22.9-35.9 37.3-60.6 37.3-2.3 0-4.7-.1-7-.4H142.3c-2.6.3-5.2.4-7.7.4-27 0-49.7-14.4-62.9-37.3-14.4-25-14.4-54.8 0-79.8L443 156.7c14.4-25 40.2-39.9 69.1-39.9m0-6c-31 0-58.8 16-74.3 42.9L66.4 796.9c-15.5 26.9-15.5 59 0 85.8 7.1 12.3 16.9 22.4 28.4 29.3 11.9 7.2 25.6 10.9 39.8 10.9 2.6 0 5.3-.1 8-.4h742c2.4.3 4.9.4 7.3.4 13.2 0 26.2-3.8 37.8-11 11.3-7 21-17.2 28-29.3 15.5-26.9 15.5-59 0-85.8L586.4 153.7c-15.5-26.8-43.3-42.9-74.3-42.9z" opacity=".12"/><path d="M512.1 116.8c28.9 0 54.7 14.9 69.1 39.9l371.3 643.1c14.4 25 14.4 54.8 0 79.8-13.2 22.9-35.9 37.3-60.6 37.3-2.3 0-4.7-.1-7-.4H142.3c-2.6.3-5.2.4-7.7.4-27 0-49.7-14.4-62.9-37.3-14.4-25-14.4-54.8 0-79.8L443 156.7c14.4-25 40.2-39.9 69.1-39.9m0-7c-31.4 0-59.5 16.2-75.2 43.4L65.6 796.4c-15.7 27.2-15.7 59.7 0 86.8 7.2 12.4 17.1 22.7 28.7 29.7 12 7.2 25.9 11.1 40.3 11.1 2.7 0 5.4-.1 8.1-.4h741.9c2.4.3 4.9.4 7.4.4 13.3 0 26.6-3.8 38.3-11.1 11.5-7.1 21.3-17.4 28.4-29.7 15.7-27.2 15.7-59.7 0-86.8L587.3 153.2c-15.7-27.2-43.8-43.4-75.2-43.4z" opacity=".1"/><path d="M512.1 116.8c28.9 0 54.7 14.9 69.1 39.9l371.3 643.1c14.4 25 14.4 54.8 0 79.8-13.2 22.9-35.9 37.3-60.6 37.3-2.3 0-4.7-.1-7-.4H142.3c-2.6.3-5.2.4-7.7.4-27 0-49.7-14.4-62.9-37.3-14.4-25-14.4-54.8 0-79.8L443 156.7c14.4-25 40.2-39.9 69.1-39.9m0-8c-31.8 0-60.2 16.4-76.1 43.9L64.7 795.9c-15.9 27.5-15.9 60.3 0 87.8 7.2 12.6 17.3 23 29.1 30.1 12.2 7.3 26.3 11.2 40.8 11.2 2.7 0 5.4-.1 8.1-.4h741.8c2.5.3 5 .4 7.4.4 13.5 0 27-3.9 38.9-11.3 11.6-7.2 21.5-17.6 28.7-30 15.9-27.5 15.9-60.3 0-87.8L588.2 152.7c-15.9-27.5-44.4-43.9-76.1-43.9z" opacity=".1"/><path d="M512.1 116.8c28.9 0 54.7 14.9 69.1 39.9l371.3 643.1c14.4 25 14.4 54.8 0 79.8-13.2 22.9-35.9 37.3-60.6 37.3-2.3 0-4.7-.1-7-.4H142.3c-2.6.3-5.2.4-7.7.4-27 0-49.7-14.4-62.9-37.3-14.4-25-14.4-54.8 0-79.8L443 156.7c14.4-25 40.2-39.9 69.1-39.9m0-9c-32.1 0-60.9 16.6-76.9 44.4L63.8 795.4c-16.1 27.8-16.1 61 0 88.8 7.3 12.7 17.5 23.2 29.4 30.4 12.3 7.4 26.6 11.4 41.3 11.4 2.7 0 5.4-.1 8.1-.4h741.7c2.5.3 5 .4 7.5.4 13.7 0 27.3-4 39.4-11.4 11.7-7.3 21.8-17.8 29-30.4 16.1-27.8 16.1-61 0-88.8L589 152.2c-16-27.8-44.8-44.4-76.9-44.4z" opacity=".08"/><path d="M512.1 116.8c28.9 0 54.7 14.9 69.1 39.9l371.3 643.1c14.4 25 14.4 54.8 0 79.8-13.2 22.9-35.9 37.3-60.6 37.3-2.3 0-4.7-.1-7-.4H142.3c-2.6.3-5.2.4-7.7.4-27 0-49.7-14.4-62.9-37.3-14.4-25-14.4-54.8 0-79.8L443 156.7c14.4-25 40.2-39.9 69.1-39.9m0-10c-32.5 0-61.6 16.8-77.8 44.9L63 794.9c-16.2 28.1-16.2 61.7 0 89.8 7.4 12.8 17.7 23.5 29.8 30.8 12.5 7.5 26.9 11.5 41.8 11.5 2.7 0 5.5-.1 8.2-.4h741.6c2.5.3 5 .4 7.5.4 13.9 0 27.7-4 39.9-11.6 11.9-7.4 22-18 29.4-30.7 16.2-28.1 16.2-61.7 0-89.8L589.9 151.7c-16.2-28.1-45.3-44.9-77.8-44.9z" opacity=".08"/><path d="M512.1 116.8c28.9 0 54.7 14.9 69.1 39.9l371.3 643.1c14.4 25 14.4 54.8 0 79.8-13.2 22.9-35.9 37.3-60.6 37.3-2.3 0-4.7-.1-7-.4H142.3c-2.6.3-5.2.4-7.7.4-27 0-49.7-14.4-62.9-37.3-14.4-25-14.4-54.8 0-79.8L443 156.7c14.4-25 40.2-39.9 69.1-39.9m0-11c-32.8 0-62.2 17-78.7 45.4L62.1 794.4c-16.4 28.4-16.4 62.4 0 90.8 7.5 13 17.9 23.8 30.1 31.1 12.6 7.6 27.3 11.7 42.3 11.7 2.7 0 5.5-.1 8.2-.4h741.5c2.5.3 5.1.4 7.6.4 14.1 0 28.1-4.1 40.4-11.7 12-7.5 22.3-18.2 29.7-31.1 16.4-28.4 16.4-62.4 0-90.8L590.8 151.2c-16.5-28.4-45.9-45.4-78.7-45.4z" opacity=".06"/><path d="M512.1 116.8c28.9 0 54.7 14.9 69.1 39.9l371.3 643.1c14.4 25 14.4 54.8 0 79.8-13.2 22.9-35.9 37.3-60.6 37.3-2.3 0-4.7-.1-7-.4H142.3c-2.6.3-5.2.4-7.7.4-27 0-49.7-14.4-62.9-37.3-14.4-25-14.4-54.8 0-79.8L443 156.7c14.4-25 40.2-39.9 69.1-39.9m0-12c-33.2 0-62.9 17.2-79.5 45.9L61.2 793.9c-16.6 28.8-16.6 63.1 0 91.8 7.6 13.1 18.1 24 30.5 31.5 12.8 7.7 27.6 11.8 42.9 11.8 2.7 0 5.5-.1 8.3-.4h741.4c2.5.3 5.1.4 7.6.4 14.3 0 28.4-4.1 41-11.9 12.2-7.5 22.6-18.4 30.1-31.4 16.6-28.8 16.6-63.1 0-91.8L591.6 150.7c-16.6-28.7-46.3-45.9-79.5-45.9z" opacity=".06"/><path d="M512.1 116.8c28.9 0 54.7 14.9 69.1 39.9l371.3 643.1c14.4 25 14.4 54.8 0 79.8-13.2 22.9-35.9 37.3-60.6 37.3-2.3 0-4.7-.1-7-.4H142.3c-2.6.3-5.2.4-7.7.4-27 0-49.7-14.4-62.9-37.3-14.4-25-14.4-54.8 0-79.8L443 156.7c14.4-25 40.2-39.9 69.1-39.9m0-13c-33.6 0-63.6 17.4-80.4 46.4L60.4 793.4c-16.8 29.1-16.8 63.8 0 92.8 7.7 13.3 18.3 24.3 30.8 31.8 12.9 7.8 27.9 11.9 43.4 11.9 2.7 0 5.5-.1 8.3-.4h741.3c2.6.3 5.1.4 7.7.4 14.5 0 28.8-4.2 41.5-12 12.3-7.6 22.8-18.6 30.4-31.8 16.8-29.1 16.8-63.8 0-92.8L592.5 150.2c-16.8-29-46.8-46.4-80.4-46.4z" opacity=".04"/><path d="M512.1 116.8c28.9 0 54.7 14.9 69.1 39.9l371.3 643.1c14.4 25 14.4 54.8 0 79.8-13.2 22.9-35.9 37.3-60.6 37.3-2.3 0-4.7-.1-7-.4H142.3c-2.6.3-5.2.4-7.7.4-27 0-49.7-14.4-62.9-37.3-14.4-25-14.4-54.8 0-79.8L443 156.7c14.4-25 40.2-39.9 69.1-39.9m0-14c-33.9 0-64.3 17.5-81.3 46.9L59.5 792.9c-17 29.4-17 64.5 0 93.8 7.8 13.4 18.5 24.6 31.2 32.2 13.1 7.9 28.3 12.1 43.9 12.1 2.8 0 5.6-.1 8.4-.4h741.2c2.6.3 5.2.4 7.7.4 14.6 0 29.2-4.2 42-12.2 12.4-7.7 23.1-18.8 30.7-32.1 17-29.4 17-64.5 0-93.8L593.4 149.7c-17-29.3-47.4-46.9-81.3-46.9z" opacity=".04"/><path d="M512.1 116.8c28.9 0 54.7 14.9 69.1 39.9l371.3 643.1c14.4 25 14.4 54.8 0 79.8-13.2 22.9-35.9 37.3-60.6 37.3-2.3 0-4.7-.1-7-.4H142.3c-2.6.3-5.2.4-7.7.4-27 0-49.7-14.4-62.9-37.3-14.4-25-14.4-54.8 0-79.8L443 156.7c14.4-25 40.2-39.9 69.1-39.9m0-15c-34.3 0-65 17.7-82.1 47.4L58.6 792.4c-17.1 29.7-17.1 65.1 0 94.8 7.8 13.6 18.7 24.8 31.5 32.6 13.3 8 28.6 12.2 44.4 12.2 2.8 0 5.6-.1 8.4-.4H884c2.6.3 5.2.4 7.8.4 14.8 0 29.5-4.3 42.5-12.3 12.6-7.8 23.3-19 31.1-32.5 17.1-29.7 17.1-65.1 0-94.8L594.2 149.2c-17.1-29.7-47.8-47.4-82.1-47.4z" opacity=".02"/><path d="M512.1 116.8c28.9 0 54.7 14.9 69.1 39.9l371.3 643.1c14.4 25 14.4 54.8 0 79.8-13.2 22.9-35.9 37.3-60.6 37.3-2.3 0-4.7-.1-7-.4H142.3c-2.6.3-5.2.4-7.7.4-27 0-49.7-14.4-62.9-37.3-14.4-25-14.4-54.8 0-79.8L443 156.7c14.4-25 40.2-39.9 69.1-39.9m0-16c-34.6 0-65.7 17.9-83 47.9L57.8 791.9c-17.3 30-17.3 65.8 0 95.8 7.9 13.7 18.9 25.1 31.9 32.9 13.4 8.1 28.9 12.4 44.9 12.4 2.8 0 5.6-.1 8.5-.4h741c2.6.3 5.2.4 7.8.4 15 0 29.9-4.3 43.1-12.5 12.7-7.9 23.6-19.2 31.4-32.8 17.3-30 17.3-65.8 0-95.8L595.1 148.7c-17.3-30-48.4-47.9-83-47.9z" opacity=".02"/><path d="M512.1 116.8c28.9 0 54.7 14.9 69.1 39.9l371.3 643.1c14.4 25 14.4 54.8 0 79.8-13.2 22.9-35.9 37.3-60.6 37.3-2.3 0-4.7-.1-7-.4H142.3c-2.6.3-5.2.4-7.7.4-27 0-49.7-14.4-62.9-37.3-14.4-25-14.4-54.8 0-79.8L443 156.7c14.4-25 40.2-39.9 69.1-39.9m0-17c-35 0-66.4 18.1-83.9 48.4L56.9 791.4c-17.5 30.3-17.5 66.5 0 96.8 8 13.9 19.2 25.4 32.2 33.3 13.6 8.2 29.3 12.5 45.4 12.5 2.8 0 5.7-.1 8.5-.4h741c2.6.3 5.3.4 7.9.4 15.2 0 30.3-4.4 43.6-12.6 12.9-8 23.8-19.4 31.8-33.2 17.5-30.3 17.5-66.5 0-96.8L596 148.2c-17.6-30.3-48.9-48.4-83.9-48.4z" opacity=".01"/><path d="M512.1 116.8c28.9 0 54.7 14.9 69.1 39.9l371.3 643.1c14.4 25 14.4 54.8 0 79.8-13.2 22.9-35.9 37.3-60.6 37.3-2.3 0-4.7-.1-7-.4H142.3c-2.6.3-5.2.4-7.7.4-27 0-49.7-14.4-62.9-37.3-14.4-25-14.4-54.8 0-79.8L443 156.7c14.4-25 40.2-39.9 69.1-39.9m0-18c-35.4 0-67 18.3-84.7 48.9L56 790.9c-17.7 30.6-17.7 67.2 0 97.8 8.1 14 19.4 25.6 32.6 33.6 13.7 8.3 29.6 12.7 46 12.7 2.8 0 5.7-.1 8.6-.4H884c2.6.3 5.3.4 7.9.4 15.4 0 30.6-4.4 44.1-12.8 13-8.1 24.1-19.7 32.1-33.5 17.7-30.6 17.7-67.2 0-97.8L596.8 147.7c-17.7-30.6-49.3-48.9-84.7-48.9z" opacity=".01"/></g><linearGradient id="a" gradientUnits="userSpaceOnUse" x1="512.1" y1="886.825" x2="512.1" y2="144.3" gradientTransform="matrix(1 0 0 -1 0 1024)"><stop offset="0" stop-color="#fae462"/><stop offset=".999" stop-color="#dbac3a"/></linearGradient><path fill="url(#a)" d="M469.1 162L97.8 805.2c-19.1 33.1 4.8 74.5 43 74.5h742.6c38.2 0 62.1-41.4 43-74.5L555.1 162c-19.1-33.1-66.9-33.1-86 0z"/><linearGradient id="b" gradientUnits="userSpaceOnUse" x1="512" y1="917" x2="512" y2="114.2" gradientTransform="matrix(1 0 0 -1 0 1024)"><stop offset="0" stop-color="#fcfbf5"/><stop offset="1" stop-color="#e3e1db"/></linearGradient><path fill="url(#b)" d="M512.1 137.2c16.7 0 33.4 8.3 43 24.8l371.3 643.1c19.1 33.1-4.8 74.5-43 74.5H140.8c-38.2 0-62.1-41.4-43-74.5L469.1 162c9.6-16.5 26.3-24.8 43-24.8m0-30.2c-28.9 0-54.7 14.9-69.1 39.9L71.6 790.1c-14.4 25-14.4 54.8 0 79.8s40.3 39.9 69.1 39.9h742.6c28.9 0 54.7-14.9 69.1-39.9 14.4-25 14.4-54.8 0-79.8L581.2 146.9c-14.4-25-40.2-39.9-69.1-39.9z"/><g opacity=".22"><path fill="#323232" d="M511.8 714.5c8.6 0 16.4 2 23.1 6.1 6.8 4.1 12.1 9.4 16 16s5.9 14.3 5.9 22.9c0 8.7-2 16.3-6.1 22.9-4.1 6.6-9.4 12-16 16-6.6 4.1-14.3 6.1-22.9 6.1-10.5 0-20.6-4-30.2-12s-14.4-19-14.4-33.1c0-12.4 4.3-23 13-31.8 8.6-8.7 19.1-13.1 31.6-13.1z"/><path d="M511.8 714.5c8.6 0 16.4 2 23.1 6.1 6.8 4.1 12.1 9.4 16 16s5.9 14.3 5.9 22.9c0 8.7-2 16.3-6.1 22.9-4.1 6.6-9.4 12-16 16-6.6 4.1-14.3 6.1-22.9 6.1-10.5 0-20.6-4-30.2-12s-14.4-19-14.4-33.1c0-12.4 4.3-23 13-31.8 8.6-8.7 19.1-13.1 31.6-13.1m0-1c-12.7 0-23.5 4.5-32.3 13.5-8.8 8.9-13.3 19.9-13.3 32.5 0 14.3 5 25.7 14.8 33.8 9.7 8.1 20.1 12.2 30.9 12.2 8.8 0 16.7-2.1 23.4-6.2 6.7-4.1 12.2-9.6 16.4-16.3 4.1-6.8 6.2-14.6 6.2-23.4 0-8.8-2-16.7-6-23.4s-9.5-12.2-16.4-16.4c-7-4.2-15-6.3-23.7-6.3z" opacity=".14"/><path d="M511.8 714.5c8.6 0 16.4 2 23.1 6.1 6.8 4.1 12.1 9.4 16 16s5.9 14.3 5.9 22.9c0 8.7-2 16.3-6.1 22.9-4.1 6.6-9.4 12-16 16-6.6 4.1-14.3 6.1-22.9 6.1-10.5 0-20.6-4-30.2-12s-14.4-19-14.4-33.1c0-12.4 4.3-23 13-31.8 8.6-8.7 19.1-13.1 31.6-13.1m0-2c-12.9 0-24.1 4.6-33.1 13.8-9 9.1-13.6 20.3-13.6 33.2 0 14.6 5.1 26.3 15.1 34.6 9.9 8.2 20.5 12.4 31.5 12.4 9 0 17-2.1 24-6.4 6.9-4.2 12.5-9.8 16.7-16.7s6.4-15 6.4-24-2.1-17-6.2-23.9c-4.1-6.9-9.7-12.5-16.7-16.7-7-4.2-15.2-6.3-24.1-6.3z" opacity=".14"/><path d="M511.8 714.5c8.6 0 16.4 2 23.1 6.1 6.8 4.1 12.1 9.4 16 16s5.9 14.3 5.9 22.9c0 8.7-2 16.3-6.1 22.9-4.1 6.6-9.4 12-16 16-6.6 4.1-14.3 6.1-22.9 6.1-10.5 0-20.6-4-30.2-12s-14.4-19-14.4-33.1c0-12.4 4.3-23 13-31.8 8.6-8.7 19.1-13.1 31.6-13.1m0-3c-13.2 0-24.6 4.7-33.8 14.1-9.2 9.3-13.8 20.7-13.8 33.9 0 14.9 5.2 26.8 15.5 35.4 10.1 8.4 20.9 12.7 32.1 12.7 9.2 0 17.4-2.2 24.5-6.5 7-4.3 12.7-10 17-17 4.3-7.1 6.5-15.3 6.5-24.5 0-9.1-2.1-17.4-6.3-24.4s-9.9-12.8-17.1-17.1c-7.2-4.4-15.5-6.6-24.6-6.6z" opacity=".12"/><path d="M511.8 714.5c8.6 0 16.4 2 23.1 6.1 6.8 4.1 12.1 9.4 16 16s5.9 14.3 5.9 22.9c0 8.7-2 16.3-6.1 22.9-4.1 6.6-9.4 12-16 16-6.6 4.1-14.3 6.1-22.9 6.1-10.5 0-20.6-4-30.2-12s-14.4-19-14.4-33.1c0-12.4 4.3-23 13-31.8 8.6-8.7 19.1-13.1 31.6-13.1m0-4c-13.5 0-25.1 4.8-34.5 14.4-9.4 9.5-14.1 21.2-14.1 34.6 0 15.2 5.3 27.4 15.8 36.1 10.3 8.6 21.3 12.9 32.8 12.9 9.4 0 17.8-2.2 25-6.7 7.1-4.4 13-10.2 17.3-17.3 4.4-7.2 6.7-15.6 6.7-25 0-9.3-2.2-17.7-6.4-24.9-4.3-7.2-10.1-13-17.4-17.4-7.4-4.5-15.9-6.7-25.2-6.7z" opacity=".12"/><path d="M511.8 714.5c8.6 0 16.4 2 23.1 6.1 6.8 4.1 12.1 9.4 16 16s5.9 14.3 5.9 22.9c0 8.7-2 16.3-6.1 22.9-4.1 6.6-9.4 12-16 16-6.6 4.1-14.3 6.1-22.9 6.1-10.5 0-20.6-4-30.2-12s-14.4-19-14.4-33.1c0-12.4 4.3-23 13-31.8 8.6-8.7 19.1-13.1 31.6-13.1m0-5c-13.8 0-25.6 4.9-35.2 14.7-9.6 9.7-14.4 21.6-14.4 35.3 0 15.6 5.5 28 16.2 36.9 10.5 8.7 21.7 13.1 33.4 13.1 9.5 0 18.1-2.3 25.5-6.8 7.3-4.5 13.2-10.4 17.7-17.7 4.5-7.4 6.8-16 6.8-25.5s-2.2-18.1-6.6-25.5c-4.3-7.3-10.3-13.3-17.8-17.8-7.5-4.4-16.1-6.7-25.6-6.7z" opacity=".1"/><path d="M511.8 714.5c8.6 0 16.4 2 23.1 6.1 6.8 4.1 12.1 9.4 16 16s5.9 14.3 5.9 22.9c0 8.7-2 16.3-6.1 22.9-4.1 6.6-9.4 12-16 16-6.6 4.1-14.3 6.1-22.9 6.1-10.5 0-20.6-4-30.2-12s-14.4-19-14.4-33.1c0-12.4 4.3-23 13-31.8 8.6-8.7 19.1-13.1 31.6-13.1m0-6c-14 0-26.1 5-35.9 15-9.8 9.9-14.7 22-14.7 36 0 15.9 5.6 28.5 16.6 37.7 10.7 8.9 22.1 13.3 34 13.3 9.7 0 18.5-2.3 26-7 7.4-4.5 13.5-10.6 18-18 4.6-7.5 7-16.3 7-26s-2.3-18.4-6.7-26c-4.4-7.5-10.5-13.6-18.1-18.1-7.7-4.6-16.5-6.9-26.2-6.9z" opacity=".1"/><path d="M511.8 714.5c8.6 0 16.4 2 23.1 6.1 6.8 4.1 12.1 9.4 16 16s5.9 14.3 5.9 22.9c0 8.7-2 16.3-6.1 22.9-4.1 6.6-9.4 12-16 16-6.6 4.1-14.3 6.1-22.9 6.1-10.5 0-20.6-4-30.2-12s-14.4-19-14.4-33.1c0-12.4 4.3-23 13-31.8 8.6-8.7 19.1-13.1 31.6-13.1m0-7c-14.3 0-26.6 5.1-36.6 15.3-9.9 10.1-15 22.5-15 36.7 0 16.2 5.7 29.1 16.9 38.4 10.8 9 22.5 13.6 34.7 13.6 9.9 0 18.9-2.4 26.6-7.1 7.6-4.6 13.7-10.8 18.3-18.3 4.7-7.7 7.1-16.6 7.1-26.6 0-9.9-2.3-18.8-6.9-26.5-4.5-7.6-10.7-13.8-18.4-18.5-7.9-4.6-16.9-7-26.7-7z" opacity=".08"/><path d="M511.8 714.5c8.6 0 16.4 2 23.1 6.1 6.8 4.1 12.1 9.4 16 16s5.9 14.3 5.9 22.9c0 8.7-2 16.3-6.1 22.9-4.1 6.6-9.4 12-16 16-6.6 4.1-14.3 6.1-22.9 6.1-10.5 0-20.6-4-30.2-12s-14.4-19-14.4-33.1c0-12.4 4.3-23 13-31.8 8.6-8.7 19.1-13.1 31.6-13.1m0-8c-14.6 0-27.2 5.2-37.3 15.6-10.1 10.3-15.3 22.9-15.3 37.4 0 16.5 5.8 29.7 17.3 39.2 11 9.2 22.9 13.8 35.3 13.8 10.1 0 19.2-2.4 27.1-7.3 7.7-4.7 14-11 18.7-18.7 4.8-7.9 7.3-17 7.3-27.1s-2.4-19.1-7-27c-4.6-7.8-10.9-14.1-18.8-18.8-8.1-4.7-17.3-7.1-27.3-7.1z" opacity=".08"/><path d="M511.8 714.5c8.6 0 16.4 2 23.1 6.1 6.8 4.1 12.1 9.4 16 16s5.9 14.3 5.9 22.9c0 8.7-2 16.3-6.1 22.9-4.1 6.6-9.4 12-16 16-6.6 4.1-14.3 6.1-22.9 6.1-10.5 0-20.6-4-30.2-12s-14.4-19-14.4-33.1c0-12.4 4.3-23 13-31.8 8.6-8.7 19.1-13.1 31.6-13.1m0-9c-14.9 0-27.7 5.3-38 15.9-10.3 10.5-15.6 23.3-15.6 38.1 0 16.8 5.9 30.3 17.6 40 11.2 9.3 23.3 14 36 14 10.3 0 19.6-2.5 27.6-7.4 7.8-4.8 14.2-11.2 19-19 4.9-8 7.4-17.3 7.4-27.6 0-10.2-2.4-19.5-7.1-27.5-4.7-7.9-11.1-14.3-19.1-19.2-8.3-4.8-17.6-7.3-27.8-7.3z" opacity=".06"/><path d="M511.8 714.5c8.6 0 16.4 2 23.1 6.1 6.8 4.1 12.1 9.4 16 16s5.9 14.3 5.9 22.9c0 8.7-2 16.3-6.1 22.9-4.1 6.6-9.4 12-16 16-6.6 4.1-14.3 6.1-22.9 6.1-10.5 0-20.6-4-30.2-12s-14.4-19-14.4-33.1c0-12.4 4.3-23 13-31.8 8.6-8.7 19.1-13.1 31.6-13.1m0-11c-15.4 0-28.7 5.5-39.5 16.5-10.7 10.9-16.1 24.2-16.1 39.6 0 17.4 6.2 31.4 18.4 41.5 11.6 9.6 24.1 14.5 37.2 14.5 10.7 0 20.3-2.6 28.7-7.7 8.1-5 14.7-11.6 19.7-19.7 5.1-8.3 7.7-18 7.7-28.7 0-10.6-2.5-20.2-7.4-28.5-4.9-8.2-11.5-14.9-19.8-19.9-8.6-5-18.3-7.6-28.9-7.6z" opacity=".06"/><path d="M511.8 714.5c8.6 0 16.4 2 23.1 6.1 6.8 4.1 12.1 9.4 16 16s5.9 14.3 5.9 22.9c0 8.7-2 16.3-6.1 22.9-4.1 6.6-9.4 12-16 16-6.6 4.1-14.3 6.1-22.9 6.1-10.5 0-20.6-4-30.2-12s-14.4-19-14.4-33.1c0-12.4 4.3-23 13-31.8 8.6-8.7 19.1-13.1 31.6-13.1m0-12c-15.7 0-29.2 5.6-40.2 16.8-10.9 11.1-16.4 24.6-16.4 40.3 0 17.7 6.3 32 18.7 42.3 11.8 9.8 24.5 14.7 37.9 14.7 10.8 0 20.7-2.6 29.2-7.8 8.2-5 15-11.8 20-20 5.2-8.5 7.8-18.3 7.8-29.2 0-10.8-2.5-20.5-7.5-29-4.9-8.3-11.7-15.1-20.2-20.2-8.7-5.3-18.5-7.9-29.3-7.9z" opacity=".04"/><path d="M511.8 714.5c8.6 0 16.4 2 23.1 6.1 6.8 4.1 12.1 9.4 16 16s5.9 14.3 5.9 22.9c0 8.7-2 16.3-6.1 22.9-4.1 6.6-9.4 12-16 16-6.6 4.1-14.3 6.1-22.9 6.1-10.5 0-20.6-4-30.2-12s-14.4-19-14.4-33.1c0-12.4 4.3-23 13-31.8 8.6-8.7 19.1-13.1 31.6-13.1m0-13c-16 0-29.7 5.7-40.9 17.1-11.1 11.3-16.7 25-16.7 41 0 18 6.4 32.5 19.1 43.1 11.9 9.9 24.9 15 38.5 15 11 0 21-2.7 29.7-8 8.4-5.1 15.2-12 20.3-20.3 5.3-8.7 8-18.7 8-29.7s-2.6-20.9-7.7-29.5c-5-8.5-11.9-15.4-20.5-20.6-8.8-5.4-18.9-8.1-29.8-8.1z" opacity=".04"/><path d="M511.8 714.5c8.6 0 16.4 2 23.1 6.1 6.8 4.1 12.1 9.4 16 16s5.9 14.3 5.9 22.9c0 8.7-2 16.3-6.1 22.9-4.1 6.6-9.4 12-16 16-6.6 4.1-14.3 6.1-22.9 6.1-10.5 0-20.6-4-30.2-12s-14.4-19-14.4-33.1c0-12.4 4.3-23 13-31.8 8.6-8.7 19.1-13.1 31.6-13.1m0-14c-16.3 0-30.3 5.8-41.6 17.4-11.3 11.5-17 25.5-17 41.7 0 18.4 6.5 33.1 19.5 43.8 12.1 10.1 25.3 15.2 39.2 15.2 11.2 0 21.4-2.7 30.2-8.1 8.5-5.2 15.5-12.2 20.7-20.7 5.4-8.8 8.1-19 8.1-30.2 0-11.1-2.6-21.2-7.8-30-5.1-8.6-12.1-15.7-20.9-20.9-9.1-5.5-19.3-8.2-30.4-8.2z" opacity=".02"/><path d="M511.8 714.5c8.6 0 16.4 2 23.1 6.1 6.8 4.1 12.1 9.4 16 16s5.9 14.3 5.9 22.9c0 8.7-2 16.3-6.1 22.9-4.1 6.6-9.4 12-16 16-6.6 4.1-14.3 6.1-22.9 6.1-10.5 0-20.6-4-30.2-12s-14.4-19-14.4-33.1c0-12.4 4.3-23 13-31.8 8.6-8.7 19.1-13.1 31.6-13.1m0-15c-16.5 0-30.8 5.9-42.3 17.7-11.5 11.6-17.3 25.9-17.3 42.4 0 18.4 6.9 33.8 19.8 44.6 12.3 10.2 25.7 15.4 39.8 15.4 11.4 0 21.8-2.8 30.7-8.3 8.6-5.3 15.7-12.4 21-21 5.5-9 8.3-19.3 8.3-30.7 0-11.3-2.7-21.6-8-30.5-5.2-8.8-12.3-15.9-21.2-21.2-9.1-5.6-19.5-8.4-30.8-8.4z" opacity=".02"/></g><radialGradient id="c" cx="512" cy="272.1" r="44.9" gradientTransform="matrix(1 0 0 -1 0 1024)" gradientUnits="userSpaceOnUse"><stop offset="0" stop-color="#f8f8f8"/><stop offset="1" stop-color="#e9e9e8"/></radialGradient><path fill="url(#c)" d="M511.8 706.9c8.6 0 16.4 2 23.1 6.1 6.8 4.1 12.1 9.4 16 16s5.9 14.3 5.9 22.9c0 8.7-2 16.3-6.1 22.9-4.1 6.6-9.4 12-16 16-6.6 4.1-14.3 6.1-22.9 6.1-10.5 0-20.6-4-30.2-12s-14.4-19-14.4-33.1c0-12.4 4.3-23 13-31.8 8.6-8.7 19.1-13.1 31.6-13.1z"/><g opacity=".22"><path fill="#323232" d="M520.3 667.4h-15.8l-22.7-171.5c-9.2-66.5-13.8-105.2-13.8-116 0-15.9 4.1-28.9 12.4-38.9 8.2-10 19.4-15 33.5-15 13.5 0 23.8 5.2 30.8 15.6s10.5 22.9 10.5 37.5c0 8.1-3.5 39.9-10.5 95.3l-24.4 193z"/><path d="M513.8 326c13.5 0 23.8 5.2 30.8 15.6s10.5 22.9 10.5 37.5c0 8.1-3.5 39.9-10.5 95.3l-24.3 193h-15.8l-22.7-171.5c-9.2-66.5-13.8-105.2-13.8-116 0-15.9 4.1-28.9 12.4-38.9 8.2-10 19.3-15 33.4-15m0-1c-14.3 0-25.8 5.2-34.2 15.4-8.4 10.1-12.6 23.5-12.6 39.6 0 10.8 4.6 49.9 13.8 116.1l22.7 171.5.1.9H521.2l.1-.9 24.3-193c7.1-56 10.6-87.2 10.6-95.4 0-14.7-3.6-27.5-10.7-38.1-7.3-10.7-17.9-16.1-31.7-16.1z" opacity=".14"/><path d="M513.8 326c13.5 0 23.8 5.2 30.8 15.6s10.5 22.9 10.5 37.5c0 8.1-3.5 39.9-10.5 95.3l-24.3 193h-15.8l-22.7-171.5c-9.2-66.5-13.8-105.2-13.8-116 0-15.9 4.1-28.9 12.4-38.9 8.2-10 19.3-15 33.4-15m0-2c-14.6 0-26.4 5.3-35 15.7-8.5 10.3-12.8 23.8-12.8 40.2 0 10.9 4.6 50 13.8 116.3l22.7 171.5.2 1.7H522.1l.2-1.7 24.3-193c7.1-56 10.6-87.3 10.6-95.6 0-14.9-3.7-27.9-10.9-38.6-7.4-11-18.4-16.5-32.5-16.5z" opacity=".14"/><path d="M513.8 326c13.5 0 23.8 5.2 30.8 15.6s10.5 22.9 10.5 37.5c0 8.1-3.5 39.9-10.5 95.3l-24.3 193h-15.8l-22.7-171.5c-9.2-66.5-13.8-105.2-13.8-116 0-15.9 4.1-28.9 12.4-38.9 8.2-10 19.3-15 33.4-15m0-3c-14.9 0-27 5.4-35.8 16.1-8.7 10.5-13.1 24.2-13.1 40.8 0 11.1 4.5 49.1 13.8 116.4l22.7 171.5.3 2.6H522.7l.3-2.6 24.3-193c7.1-56.1 10.6-87.4 10.6-95.7 0-15.1-3.7-28.3-11.1-39.2-7.3-11.2-18.5-16.9-33-16.9z" opacity=".12"/><path d="M513.8 326c13.5 0 23.8 5.2 30.8 15.6s10.5 22.9 10.5 37.5c0 8.1-3.5 39.9-10.5 95.3l-24.3 193h-15.8l-22.7-171.5c-9.2-66.5-13.8-105.2-13.8-116 0-15.9 4.1-28.9 12.4-38.9 8.2-10 19.3-15 33.4-15m0-4c-15.2 0-27.5 5.5-36.5 16.5-8.8 10.7-13.3 24.6-13.3 41.5 0 11.1 4.5 49.2 13.8 116.5L500.5 668l.5 3.5h22.8l.4-3.5 24.3-193c7.1-56.1 10.6-87.5 10.6-95.8 0-15.3-3.8-28.7-11.2-39.8-7.8-11.6-19.3-17.4-34.1-17.4z" opacity=".12"/><path d="M513.8 326c13.5 0 23.8 5.2 30.8 15.6s10.5 22.9 10.5 37.5c0 8.1-3.5 39.9-10.5 95.3l-24.3 193h-15.8l-22.7-171.5c-9.2-66.5-13.8-105.2-13.8-116 0-15.9 4.1-28.9 12.4-38.9 8.2-10 19.3-15 33.4-15m0-5c-15.6 0-28.1 5.7-37.3 16.8-9 10.9-13.5 25-13.5 42.1 0 11.2 4.5 49.3 13.8 116.7l22.7 171.5.6 4.3h24.6l.6-4.4 24.3-193c7.1-56.2 10.6-87.5 10.6-95.9 0-15.5-3.8-29.1-11.4-40.3-8-11.8-19.8-17.8-35-17.8z" opacity=".1"/><path d="M513.8 326c13.5 0 23.8 5.2 30.8 15.6s10.5 22.9 10.5 37.5c0 8.1-3.5 39.9-10.5 95.3l-24.3 193h-15.8l-22.7-171.5c-9.2-66.5-13.8-105.2-13.8-116 0-15.9 4.1-28.9 12.4-38.9 8.2-10 19.3-15 33.4-15m0-6c-15.9 0-28.7 5.8-38.1 17.2-9.1 11.1-13.7 25.4-13.7 42.7 0 11.2 4.5 49.4 13.8 116.8l22.7 171.5.7 5.2H525.6l.7-5.2 24.3-193c7.1-56.2 10.6-87.6 10.6-96.1 0-15.7-3.9-29.5-11.6-40.9-8.2-12.1-20.3-18.2-35.8-18.2z" opacity=".1"/><path d="M513.8 326c13.5 0 23.8 5.2 30.8 15.6s10.5 22.9 10.5 37.5c0 8.1-3.5 39.9-10.5 95.3l-24.3 193h-15.8l-22.7-171.5c-9.2-66.5-13.8-105.2-13.8-116 0-15.9 4.1-28.9 12.4-38.9 8.2-10 19.3-15 33.4-15m0-7c-16.2 0-29.3 5.9-38.9 17.6-9.3 11.2-14 25.8-14 43.4 0 11.3 4.5 49.5 13.9 116.9l22.7 171.5.8 6.1H526.4l.8-6.1 24.3-193c7.1-56.2 10.6-87.7 10.6-96.2 0-15.9-4-29.9-11.7-41.4-8.4-12.5-20.7-18.8-36.6-18.8z" opacity=".08"/><path d="M513.8 326c13.5 0 23.8 5.2 30.8 15.6s10.5 22.9 10.5 37.5c0 8.1-3.5 39.9-10.5 95.3l-24.3 193h-15.8l-22.7-171.5c-9.2-66.5-13.8-105.2-13.8-116 0-15.9 4.1-28.9 12.4-38.9 8.2-10 19.3-15 33.4-15m0-8c-16.5 0-29.8 6-39.6 17.9-9.4 11.4-14.2 26.2-14.2 44 0 11.3 4.5 49.6 13.9 117.1l22.7 171.5.9 7h29.9l.9-7 24.3-193c7.1-56.3 10.6-87.8 10.6-96.3 0-16.2-4-30.3-11.9-42-8.7-12.8-21.3-19.2-37.5-19.2z" opacity=".08"/><path d="M513.8 326c13.5 0 23.8 5.2 30.8 15.6s10.5 22.9 10.5 37.5c0 8.1-3.5 39.9-10.5 95.3l-24.3 193h-15.8l-22.7-171.5c-9.2-66.5-13.8-105.2-13.8-116 0-15.9 4.1-28.9 12.4-38.9 8.2-10 19.3-15 33.4-15m0-9c-16.8 0-30.4 6.2-40.4 18.3-9.6 11.6-14.4 26.6-14.4 44.7 0 11.3 4.5 49.7 13.9 117.2l22.7 171.5 1 7.8h31.6l1-7.9 24.3-193c7.1-56.3 10.6-87.9 10.6-96.4 0-16.4-4.1-30.7-12.1-42.5-8.6-13-21.8-19.7-38.2-19.7z" opacity=".06"/><path d="M513.8 326c13.5 0 23.8 5.2 30.8 15.6s10.5 22.9 10.5 37.5c0 8.1-3.5 39.9-10.5 95.3l-24.3 193h-15.8l-22.7-171.5c-9.2-66.5-13.8-105.2-13.8-116 0-15.9 4.1-28.9 12.4-38.9 8.2-10 19.3-15 33.4-15m0-11c-17.4 0-31.5 6.4-41.9 19-9.9 12-14.9 27.4-14.9 45.9 0 11.4 4.5 49.9 13.9 117.5l22.7 171.5 1.3 9.6H530l1.2-9.6 24.3-193c9.5-75.1 10.6-91.2 10.6-96.7 0-16.8-4.2-31.5-12.4-43.7-9-13.5-22.8-20.5-39.9-20.5z" opacity=".06"/><path d="M513.8 326c13.5 0 23.8 5.2 30.8 15.6s10.5 22.9 10.5 37.5c0 8.1-3.5 39.9-10.5 95.3l-24.3 193h-15.8l-22.7-171.5c-9.2-66.5-13.8-105.2-13.8-116 0-15.9 4.1-28.9 12.4-38.9 8.2-10 19.3-15 33.4-15m0-12c-17.7 0-32.1 6.5-42.7 19.4-10 12.2-15.1 27.8-15.1 46.6 0 11.5 4.5 50 13.9 117.6L492.6 669l1.4 10.4h36.9l1.3-10.5 24.3-193c9.5-75.2 10.6-91.3 10.6-96.8 0-17-4.2-31.8-12.6-44.2-9.2-13.7-23.3-20.9-40.7-20.9z" opacity=".04"/><path d="M513.8 326c13.5 0 23.8 5.2 30.8 15.6s10.5 22.9 10.5 37.5c0 8.1-3.5 39.9-10.5 95.3l-24.3 193h-15.8l-22.7-171.5c-9.2-66.5-13.8-105.2-13.8-116 0-15.9 4.1-28.9 12.4-38.9 8.2-10 19.3-15 33.4-15m0-13c-18.1 0-32.7 6.6-43.5 19.7-10.2 12.3-15.3 28.2-15.3 47.2 0 11.5 4.5 50 13.9 117.7l22.7 171.5 1.5 11.3h38.7l1.4-11.4 24.3-193c9.5-75.3 10.6-91.4 10.6-96.9 0-17.2-4.3-32.2-12.8-44.8-9.4-13.9-23.7-21.3-41.5-21.3z" opacity=".04"/><path d="M513.8 326c13.5 0 23.8 5.2 30.8 15.6s10.5 22.9 10.5 37.5c0 8.1-3.5 39.9-10.5 95.3l-24.3 193h-15.8l-22.7-171.5c-9.2-66.5-13.8-105.2-13.8-116 0-15.9 4.1-28.9 12.4-38.9 8.2-10 19.3-15 33.4-15m0-14c-18.1 0-33.4 7-44.3 20.1-10.3 12.5-15.6 28.6-15.6 47.8 0 7.4 1.4 27.6 13.9 117.9l22.7 171.5 1.6 12.2H532.5l1.5-12.2 24.3-193c9.5-75.3 10.7-91.5 10.7-97.1 0-17.4-4.4-32.6-12.9-45.3-9.5-14.4-24.2-21.9-42.3-21.9z" opacity=".02"/><path d="M513.8 326c13.5 0 23.8 5.2 30.8 15.6s10.5 22.9 10.5 37.5c0 8.1-3.5 39.9-10.5 95.3l-24.3 193h-15.8l-22.7-171.5c-9.2-66.5-13.8-105.2-13.8-116 0-15.9 4.1-28.9 12.4-38.9 8.2-10 19.3-15 33.4-15m0-15c-18.4 0-34 7.1-45 20.5-10.5 12.7-15.8 29-15.8 48.5 0 7.4 1.4 27.7 13.9 118l22.7 171.5 1.7 13H533.4l1.7-13.1 24.3-193c9.6-75.4 10.7-91.6 10.7-97.2 0-17.6-4.4-33-13.1-45.9-9.8-14.6-24.8-22.3-43.2-22.3z" opacity=".02"/></g><radialGradient id="d" cx="511.6" cy="534.823" r="124.58" gradientTransform="matrix(1 0 0 -2.5 0 1826.258)" gradientUnits="userSpaceOnUse"><stop offset="0" stop-color="#f8f8f8"/><stop offset="1" stop-color="#e9e9e8"/></radialGradient><path fill="url(#d)" d="M520.3 659.9h-15.8l-22.7-171.5c-9.2-66.5-13.8-105.2-13.8-116 0-15.9 4.1-28.9 12.4-38.9 8.2-10 19.4-15 33.5-15 13.5 0 23.8 5.2 30.8 15.6s10.5 22.9 10.5 37.5c0 8.1-3.5 39.9-10.5 95.3l-24.4 193z"/></svg>